<svg xmlns="http://www.w3.org/2000/svg" viewBox="0 0 1916.85 3127"><defs><style>.cls-1{fill:#f5a6c8;}.cls-2{fill:#7e5364;}.cls-3{fill:#a8a5a5;}.cls-4{fill:#b6b4b4;}.cls-5{fill:#fff;}.cls-6{fill:#b2758d;}.cls-7{fill:#a7a4a4;}</style></defs><g id="Layer_2" data-name="Layer 2"><g id="Layer_1-2" data-name="Layer 1"><path class="cls-1" d="M959.84,0l.2,3.82c1.33,9.93,1.05,19.92,1.05,29.89q0,549.86,0,1099.72c0,6.65.38,13.32-.54,19.92a12.77,12.77,0,0,1-1,3.31c-1.56,2.8-4.38,3.88-7.11,5.12q-145.5,65.87-290.79,132.15c-69.66,31.67-139.21,63.57-208.93,95.11q-113.22,51.23-226.29,102.74-104.51,47.48-208.93,95.11c-5.24,2.4-10.29,6.41-16.78,4.49.28-3.53,2.77-6,4.45-8.79q340-564.66,680-1129.25Q818.07,232.63,951,11.89c1.86-3.09,4.44-5.87,5-9.66A8.2,8.2,0,0,1,957.85,0Z"/><path class="cls-2" d="M1914.94,1591.46l1.91,0v2q-61.78,36.33-123.57,72.68Q1382,1909.46,970.73,2152.79c-2.84,1.68-5.86,3.05-8.79,4.56-4.93,2-5.7-1.92-6.56-5-1.17-4.2-.78-8.61-.78-12.93q0-482.34,0-964.68c0-5.93-.89-12.09,3-17.39v0c3.59-2.61,7-1,10.33.55,46.16,21.46,92.61,42.28,138.93,63.37q71.3,32.46,142.66,64.8l141.71,64.48q71.76,32.66,143.55,65.25,70,31.8,139.91,63.63,73.11,33.3,146.27,66.51,43.17,19.62,86.3,39.29A18.47,18.47,0,0,1,1914.94,1591.46Z"/><path class="cls-3" d="M1916.85,1777.43l-1,0-1,0c-.91,1-1.64.85-2.2-.35.66-2.06,2.66-2.58,4.19-3.65Z"/><path class="cls-4" d="M959.79,3124.92c0,.69,0,1.39.05,2.08h-4c.12-.77.25-1.53.37-2.3a2.74,2.74,0,0,1,1.85-.85A2.49,2.49,0,0,1,959.79,3124.92Z"/><path class="cls-5" d="M957.85,0a2.86,2.86,0,0,1-1.92,2.23c0-.74,0-1.49-.08-2.23Z"/><path class="cls-6" d="M957.61,1157.38c.08,4.66.23,9.32.23,14q0,486.15,0,972.3,0,5,.13,10c.07,2.5,1.89,3.25,4,3.7-1.54,2.42-3.72,2.69-6,1.49-2.65-1.38-5.17-3-7.74-4.54q-468-276.84-936-553.64c-3.41-2-6.52-4.62-10.5-5.56.23-1.39-3-1.86-1-3.72q54-24.42,108.1-48.84,70.86-32,141.67-64.17c33.58-15.27,67.06-30.78,100.65-46,39.63-18,79.34-35.85,119-53.84,31.48-14.28,62.89-28.71,94.35-43Q627,1307,689.68,1278.58c32.07-14.59,64.08-29.3,96.15-43.88q61.73-28.07,123.48-56c14.53-6.59,29-13.22,43.58-19.78A41.93,41.93,0,0,1,957.61,1157.38Z"/><path class="cls-6" d="M959.79,3124.92a3.57,3.57,0,0,1-1.64-.33c-4.4-6.18-3.53-13.32-3.53-20.24q-.06-215.68,0-431.37,0-156.77.08-313.54c0-6.15-1.55-12.77,3.19-18.16q253.71-149.94,507.44-299.88,223.67-132.18,447.36-264.32l2.2.35c-.88,3.72-3.62,6.3-5.71,9.26Q1434.73,2455.38,960.26,3124A8.18,8.18,0,0,0,959.79,3124.92Z"/><path class="cls-1" d="M957.86,2341.28q0,384.66,0,769.33c0,4.66.16,9.32.25,14l-1,.11h-1q-62.31-88-124.63-176.06-203-286.36-406.12-572.7-208-293.28-415.94-586.55c-2.31-3.26-4.52-6.58-6.78-9.87a1.61,1.61,0,0,1-.49-1.67c.2-.54.38-.81.56-.81,22.13,12.89,44.34,25.65,66.38,38.68q440.94,260.65,881.85,521.39C953.34,2338.47,955.59,2339.89,957.86,2341.28Z"/><path class="cls-7" d="M2.82,1777c0,.83,0,1.65-.07,2.48-1.24-.49-2.14-1.43-1.66-2.71S2.34,1776.07,2.82,1777Z"/><path class="cls-6" d="M1914.94,1591.46q-49.93-22.47-99.84-45c-17.54-7.94-34.93-16.19-52.46-24.16-26.29-11.93-52.65-23.69-78.94-35.61-16.63-7.53-33.16-15.28-49.78-22.83-27.49-12.49-55-24.84-82.53-37.35-17.52-8-34.93-16.2-52.46-24.16-26.28-11.94-52.65-23.69-78.94-35.61-16.62-7.54-33.16-15.28-49.78-22.83-27.49-12.49-55-24.84-82.53-37.35-17.52-8-34.93-16.2-52.46-24.16-26.28-11.94-52.65-23.7-78.94-35.62-16.62-7.53-33.16-15.28-49.78-22.83-27.49-12.48-55-24.83-82.53-37.35-18.42-8.39-36.78-17-55.13-25.51-3.62-1.69-7.05-3.8-11.23-3.71.09-5,.27-10,.27-15Q957.9,579.73,958,17c0-4.38-2-9.35,2-13.21Q996.73,64.41,1033.4,125q438.11,727.44,876.12,1454.94C1911.7,1583.56,1915,1586.74,1914.94,1591.46Z"/></g></g></svg>