<svg xmlns="http://www.w3.org/2000/svg" viewBox="0 0 316.26 355.51"><defs><style>.hearts-1{fill:#fff;}.hearts-2{fill:none;stroke:#cc87a7;stroke-miterlimit:10;}</style></defs><g id="Layer_2" data-name="Layer 2"><g id="Layer_1-2" data-name="Layer 1"><rect class="hearts-1" width="316.26" height="355.51"/><path class="hearts-2" d="M138.57,112.55c-.08.8-1.19,2.53-2.48,2.53-1,0-3.3-2.14-3.3-3.55s1.43-2.47,3.05-.35a.21.21,0,0,0,.34,0C137.18,109.85,138.75,110.61,138.57,112.55Z"/><path class="hearts-2" d="M198.41,128.34c0,.81-.75,2.54-1.56,2.54-.61,0-2.06-2.15-2.06-3.56s.89-2.46,1.91-.35c.06.12.16.11.21,0C197.54,125.64,198.52,126.4,198.41,128.34Z"/></g></g></svg>