<svg xmlns="http://www.w3.org/2000/svg" viewBox="0 0 600 600"><defs><style>.mc-1{fill:#fff;opacity:0;}.mc-2{fill:none;stroke:#fff;stroke-miterlimit:10;}</style></defs><g id="Layer_2" data-name="Layer 2"><g id="Layer_1-2" data-name="Layer 1"><polygon class="cls-1" points="600 600 0 600 0 224.46 0 0 600 0 600 600"/><polyline class="cls-2" points="0 224.46 37.66 224.46 37.66 150 75.33 150 75.33 75.11 112.55 75.11 112.55 149.78 188.31 149.78 188.31 75.11 225.54 75.11 225.54 111.91 337.23 111.91 337.23 75.11 375.76 75.11 375.76 38.31 411.69 38.31 411.69 75.97 450.22 75.97 450.22 150.43 525.11 150.43 525.11 112.34 561.9 112.34 561.9 150.87 600 150.87"/></g></g></svg>