<svg xmlns="http://www.w3.org/2000/svg" viewBox="0 0 56 56.63"><defs><style>.cls-1{fill:none;stroke:#fff;stroke-miterlimit:10;stroke-width:0.5px;}</style></defs><g id="Layer_2" data-name="Layer 2"><g id="Layer_4" data-name="Layer 4"><path class="cls-1" d="M54.6,28.83c0,3.67,2,7.81.7,11a31,31,0,0,1-6,9.54c-2.49,2.49-7.3,2.09-10.61,3.46s-6.27,3.29-9.93,3.29-7.92.83-11.11-.49a31,31,0,0,1-9.28-6.42c-2.49-2.48-1-7.65-2.38-11S.25,32.5.25,28.83,3.67,22.18,5,19s1.86-7.07,4.35-9.56,6.11-3.35,9.41-4.72S25.09.25,28.76.25A30.13,30.13,0,0,1,39.69,2.44c3.3,1.37,5.55,4.93,8,7.42A27,27,0,0,1,54,18.4C55.27,21.58,54.6,25.17,54.6,28.83Z"/></g></g></svg>