<svg xmlns="http://www.w3.org/2000/svg" viewBox="0 0 401.81 406.62"><defs><style>.cls-1{fill:#946175;}</style></defs><g id="Layer_2" data-name="Layer 2"><g id="Layer_1-2" data-name="Layer 1"><path class="cls-1" d="M401.78,188.26q0-58.31,0-116.59c0-2.63-.14-4.61-2.84-6.66C374,46.09,349.24,26.8,324.33,7.77,319,3.67,314.06-2.18,305.86.83a25.9,25.9,0,0,1-5.8,1c-11.9,1.39-23.82,2.63-35.7,4.13-14.47,1.84-28.9,4-43.38,5.81-15,1.85-30,3.26-45,5.12-17.25,2.15-34.45,4.63-51.68,6.86-18.37,2.38-36.75,4.73-55.15,6.94C48.78,33.16,28.4,35.44,8,37.77c-8,.92-8,.9-8,9V361.2c0,1.33.05,2.66,0,4,0,1.59.53,2.32,2.26,2.52,7.82.9,15.61,2,23.43,3,9.45,1.12,18.93,2,28.38,3.2,12.37,1.52,24.71,3.22,37.06,4.79,9,1.13,17.93,2.11,26.88,3.24,12.2,1.54,24.38,3.21,36.58,4.72,9.44,1.18,18.91,2.15,28.36,3.31s18.85,2.5,28.28,3.68c9.12,1.13,18.26,2.1,27.38,3.23,12.37,1.54,24.72,3.16,37.08,4.76,9.26,1.2,18.49,2.78,27.79,3.5,4,.32,8.36,3.18,12.29.17,10.83-8.27,21.46-16.8,32.26-25.1,16.78-12.9,33.55-25.82,50.56-38.42,2.77-2.06,3.21-4.08,3.21-7Q401.75,261.51,401.78,188.26ZM38.16,45.58q33.8-3.91,67.59-7.84,40.74-4.76,81.47-9.55,36.56-4.23,73.11-8.38c12.19-1.39,24.4-2.63,36.55-4.26,3.31-.44,4.43,0,4.4,3.54-.13,16.77-.16,33.54,0,50.3,0,3.7-1.45,4.11-4.66,4.35-14.76,1.08-29.49,2.77-44.26,3.73-9.22.59-18.41,1.39-27.61,2.11-15.77,1.23-31.56,2.06-47.27,4-8.6,1-16.59-1.48-24.7-3.85-38.28-11.2-76.62-22.2-114.94-33.28ZM13.76,353c-4.54,1.22-4.91-.2-4.9-4Q9,276,8.91,203V58.5c0-6.17,0-6.23,5.73-4.73Q85.86,72.63,157.11,91.42c3.52.92,3.42,2.83,3.41,5.39q0,33.63,0,67.27c0,48.16,0,96.32.1,144.48,0,4.23-1.19,5.92-5.36,7Q84.44,334,13.76,353Zm284.05,38q-42.71-5.13-85.45-10c-24.2-2.81-48.42-5.51-72.62-8.32-24.69-2.86-49.37-5.82-74.06-8.7-9.2-1.07-18.41-2-27.62-3l-.22-.82q63.41-18.42,126.8-36.81c3.57-1,7.3-.66,10.89-.37,18.38,1.49,36.74,3.29,55.12,4.82,10.19.85,20.41,1.33,30.6,2.1,12.48.93,24.95,2,37.44,3,2,.14,2.54,1,2.53,2.81q0,26.4,0,52.8C301.24,391,300.16,391.3,297.81,391Zm3.41-226.32v38.87c0,37.87-.08,75.74.1,113.6,0,4.53-1.06,6.06-5.76,5.66q-36.15-3.1-72.35-5.78-23.79-1.79-47.62-3.12c-3.24-.18-4.18-1.21-4.17-4.43q.12-106.12,0-212.27c0-3.89,1.43-4.51,4.89-4.74,21.16-1.41,42.3-3.12,63.45-4.66,15.54-1.13,31.09-2.14,46.63-3.24,3-.21,6-.45,8.9-.91,4.24-.66,6.13.21,6.07,5.28C301.06,114.21,301.22,139.45,301.22,164.7ZM318.16,16.44c23.56,16.86,46.23,33.09,70,50.07C368,68,349.42,69.21,330.87,70.77c-3.27.27-6.52,1-9.84.88-1.69,0-2.89-.35-2.89-2.43C318.17,52,318.16,34.82,318.16,16.44Zm0,373.59V376.66c0-12,.34-23.92-.14-35.86-.22-5.4,1.7-6.56,6.45-6.05q15.46,1.68,31,3c10.46.85,20.94,1.45,32.69,2.24Zm68.67-60.58c-10.69-1.28-21.46-1.85-32.21-2.61s-21.5-1.51-32.26-2c-4.06-.2-4.24-2.5-4.24-5.65q.09-68.52.05-137c0-31.56.09-63.12-.1-94.68,0-4.46,1.57-5.6,5.67-5.87,21.5-1.41,43-3,64.47-4.75,4.3-.36,4.49,1.46,4.48,4.77q-.11,60.8,0,121.59c0,40.37-.08,80.73.1,121.09C392.73,329.05,391.52,330,386.79,329.45Z"/></g></g></svg>