<svg xmlns="http://www.w3.org/2000/svg" viewBox="0 0 382.01 397.89"><defs><style>.cls-1{fill:#7e5364;}</style></defs><g id="Layer_2" data-name="Layer 2"><g id="Layer_1-2" data-name="Layer 1"><path class="cls-1" d="M382,79.38c0-8.45-1.3-16-6.14-22.85-1.13-1.61-2.05-3.37-3-5.08L344.68,2.09c-.75-1.3-1.31-2.25-3.35-2.07-15.08,1.38-30.19,2.53-45.28,3.74-8.87.72-17.75,1.38-26.62,2.13-14.77,1.26-29.52,2.61-44.29,3.84-9.53.79-19.08,1.35-28.61,2.15-14.59,1.22-29.17,2.61-43.77,3.82-9.53.8-19.1,1.12-28.6,2.16-15.39,1.68-30.84,2.58-46.27,3.88-8.87.75-17.73,1.54-26.61,2.13-15,1-29.85,2.68-44.79,3.75C.05,28.08,0,27.71,0,34.42q0,82.46,0,164.92V361.78c0,9.74-.69,8.82,8.89,8.81,1,0,2,0,3,.12,14.59,1.28,29.18,2.63,43.77,3.84,9.53.8,19.08,1.3,28.61,2.12,14.1,1.21,28.17,2.67,42.27,3.85,10,.84,20.08,1.24,30.1,2.1,17.87,1.53,35.71,3.47,53.59,4.85,16.09,1.24,32.18,2.53,48.25,4,18.22,1.63,36.51,2.47,54.71,4.26,5.1.5,10.35-.09,15.25,1.23,4.42,1.19,9,.95,13.24.94,4.67,0,5.16-6.24,7.47-9.76,1-1.51,1.93-3.07,2.83-4.64,9.08-15.87,18.1-31.77,27.24-47.61a18.93,18.93,0,0,0,2.71-9.83Q381.8,202.71,382,79.38ZM125.9,29.88c19.51-1.5,39-2.76,58.55-4.26,23.8-1.83,47.59-3.87,71.39-5.71,19.18-1.49,38.37-2.81,57.55-4.21,4.3-.31,8.61-.62,12.9-1,2.73-.26,3.88.64,3.87,3.56q-.15,23.42,0,46.84c0,3-1.37,3.43-3.94,3.55-13.71.6-27.41,1.37-41.11,2.09-18.49,1-37,2-55.45,3-12.54.64-25.08,1.44-37.63,2-14.51.64-29,1.81-43.48,2.9-4.13.31-7.81-.88-11.53-2.31L39.42,38.66c-.88-.34-1.71-.8-3.57-1.69C66.74,34.53,96.32,32.14,125.9,29.88ZM10,349.57q0-75.48,0-150.94V49.68c0-6.53,0-6.59,6.42-4.37,37.71,13.11,75.39,26.3,113.15,39.28,4.55,1.56,6.21,3.6,6.19,8.71q-.31,106.09,0,212.21c0,4.28-1,6.36-5.27,7.82q-58,19.94-115.89,40.38C9.43,355.52,10,352.78,10,349.57Zm315.82,34c-10.92-.76-21.84-1.5-32.76-2.35-15-1.17-30.07-2.44-45.11-3.63q-30.49-2.41-61-4.77c-19.18-1.46-38.37-2.77-57.54-4.24-20-1.53-40-3.22-60-4.76-10.74-.82-21.5-1.48-32.25-2.22l-.3-1Q53,354.39,69.06,348.18c23.29-8.92,46.63-17.7,69.83-26.84a25.1,25.1,0,0,1,12.65-1.43c9.7,1.2,19.45,1.26,29.17,1.76,20.8,1.05,41.58,2.53,62.41,3.25,11,.38,22.08,1.44,33.15,1.89,17,.7,34,1.95,51,2.89,2.15.11,2.89,1,2.89,3q-.06,23.92,0,47.84C330.16,384,328,383.72,325.78,383.56Zm-1.52-63.85c-19.53-1.15-39.09-1.91-58.62-3-27-1.57-54-3-81-4-11.59-.43-23.17-1.32-34.76-1.8-2.68-.11-3.57-1.11-3.34-3.58.08-.83,0-1.66,0-2.49q0-105.63-.1-211.26c0-4.69,1-6,5.93-6.17,24-.94,48-2.46,72-3.68,15.41-.79,30.82-1.38,46.23-2.16,17.05-.86,34.1-1.83,51.15-2.75l2-.09c6.33-.3,6.34-.3,6.34,5.89q0,57.3,0,114.6c0,38.36-.1,76.73.12,115.09C330.27,319.14,328.61,320,324.26,319.71ZM345,26l.92-.44,25.53,39.75c-.8,1.82-2.17,1.28-3.15,1.19-6.48-.59-12.83.93-19.26,1.09-2.86.07-4.14-.64-4.11-3.84C345.07,51.19,345,38.6,345,26Zm1.07,346.51c-1.72-.42-1-1.65-1-2.43-.05-11.75.07-23.51-.1-35.26-.05-3.29,1-4.38,4.27-4.16,7.23.47,14.42,1.68,23.18.75C363.08,345.93,354.55,359.24,346.05,372.53Zm21.73-50.72c-6.61-.52-13.21-1.47-19.87-1.08-2.14.13-3-.9-2.93-3,0-1,0-2,0-3q0-115.62-.1-231.23c0-4.75,1.15-6.37,6-6.12,5.1.26,10.25-.6,15.39-.82,6.57-.27,6.58-.21,6.58,6.2q0,58.31,0,116.61c0,39-.06,78.08.08,117.11C373,320.55,372.06,322.15,367.78,321.81Z"/></g></g></svg>