<svg xmlns="http://www.w3.org/2000/svg" viewBox="0 0 420.92 414.31"><defs><style>.cls-1{fill:#d18aaa;}</style></defs><g id="Layer_2" data-name="Layer 2"><g id="Layer_1-2" data-name="Layer 1"><path class="cls-1" d="M420.84,60.71c.47-2.39-1.1-3.39-2.83-3.87-7.66-2.12-15.36-4.06-23-6.11q-33.59-9-67.14-18-34.48-9.34-68.91-18.86C242.45,9.28,226,4.61,209.54,0h-6.19c-4.28,2.33-9.09,3-13.69,4.29C162.75,12.1,135.85,20,108.91,27.71,74.33,37.62,39.74,47.5,5.06,57,.62,58.26,0,60.21,0,64.13q.14,143,.07,286c0,1.17,0,2.33,0,3.49,0,1.72.69,2.63,2.45,3.14C27.91,364,53.27,371.36,78.66,378.6Q134,394.4,189.47,410c8.6,2.42,17.13,6.69,26.43,2.55a36.78,36.78,0,0,1,5.52-1.92c31.45-8.45,62.93-16.78,94.36-25.33,33.3-9.05,66.51-18.49,99.88-27.28,4.57-1.2,5.22-2.88,5.21-6.85q-.12-143.74-.06-287.51A14.82,14.82,0,0,1,420.84,60.71ZM54.47,54q68.67-18.29,137.34-36.53c5.48-1.46,5.47-1.49,5.47,4.3v65.5L30.5,61.35l-.15-.81C38.39,58.34,46.42,56.09,54.47,54ZM193,397.46c-16-4.26-32-8.58-48-12.85L32.64,354.7a32.4,32.4,0,0,1-3.13-1.29c18-2.93,35.09-5.79,52.17-8.45,13.89-2.17,27.83-4,41.72-6.17s27.71-4.54,41.58-6.69c9.85-1.53,19.74-2.82,29.6-4.28,2-.29,2.76.06,2.75,2.38-.1,21.59-.15,43.17,0,64.76C197.4,399.25,195.13,398,193,397.46Zm4.24-287.33q.06,100.91.1,201.8c0,4.06-.57,5.93-5.3,6.51-17.55,2.13-35,4.89-52.54,7.41q-29.71,4.26-59.42,8.52c-22.12,3.16-44.25,6.21-66.35,9.5-4.14.62-5.25-.3-5.23-4.63.17-44.18.11-88.36.11-132.54,0-43.51.08-87-.11-130.54,0-4.67.74-6.36,5.82-5.56C34,73.66,53.62,76.39,73.27,79.2c19.82,2.84,39.64,5.59,59.45,8.43,17.51,2.51,35,5.1,52.52,7.63,3.89.56,9.17-.39,11.25,2.28C198.91,100.65,197.25,105.85,197.25,110.13ZM220.52,17Q268.27,29,316,41.17c24.67,6.27,49.35,12.57,75.51,19.23-16.41,2.58-31.37,4.87-46.3,7.3-17.4,2.83-34.78,5.83-52.18,8.68-13.05,2.14-26.12,4.18-39.19,6.25-11.45,1.81-22.94,3.38-34.33,5.52-2.87.53-3.07-.19-3.07-2.43,0-22.26.08-44.52,0-66.77C216.34,14.67,218.82,16.52,220.52,17Zm-4.1,381.62V384.7q0-27.4,0-54.8c0-2.73-.42-4.12,3.86-3.35,19.6,3.53,39.36,6.15,59,9.31,19.5,3.14,38.94,6.63,58.43,9.79,15.48,2.51,31,4.79,46.51,7.09,2,.29,3.65,1.66,5.81,1.71ZM406.67,344.7Q351.23,336.21,295.76,328q-38-5.65-76-11c-2.22-.32-3.38-1-3.2-3.36.08-1,0-2,0-3q0-103.38-.05-206.77c0-3.83.14-5.82,5.25-6.53,40.44-5.61,80.8-11.74,121.18-17.77q31.92-4.76,63.79-9.76c4.15-.66,5.25.41,5.24,4.71-.17,44.34-.11,88.69-.11,133,0,44.17-.07,88.35.11,132.52C412,344.41,410.74,345.32,406.67,344.7Z"/></g></g></svg>