<svg xmlns="http://www.w3.org/2000/svg" viewBox="0 0 406.97 408.81"><defs><style>.cls-1{fill:#f6c4db;}</style></defs><g id="Layer_2" data-name="Layer 2"><g id="Layer_1-2" data-name="Layer 1"><path class="cls-1" d="M406.87,204.76V66.21c0-6.64-.15-13.29.09-19.93.09-2.51-1-3.86-3-4.19-5.46-.87-11-1.38-16.47-2.11-10.31-1.37-20.63-2.74-30.93-4.21-10.6-1.52-21.18-3.21-31.78-4.74-8.05-1.16-16.12-2.15-24.17-3.3-10.61-1.52-21.19-3.16-31.8-4.68-10.3-1.46-20.62-2.77-30.92-4.25-10.61-1.52-21.19-3.21-31.79-4.71-10.3-1.47-20.63-2.75-30.94-4.21-10.76-1.53-21.51-3.17-32.27-4.78-8.18-1.23-16.33-3-24.56-3.54-4.34-.31-8.64-3.16-13.25-.3Q54.29,32.8,3.41,64.16A6.5,6.5,0,0,0,0,70.4Q.18,204.46,0,338.52a6.51,6.51,0,0,0,3.41,6.24c31.52,19.56,63,39.22,94.65,58.54,3.43,2.09,6.39,6,11,5.45,7.74-.88,15.45-2.07,23.16-3.2,10.61-1.54,21.19-3.19,31.8-4.7,10.3-1.47,20.62-2.76,30.92-4.23,10.6-1.52,21.18-3.21,31.78-4.74,8-1.16,16.12-2.14,24.16-3.29,10.6-1.52,21.19-3.18,31.79-4.69,10.3-1.46,20.63-2.75,30.93-4.23,10.6-1.52,21.18-3.21,31.78-4.74,8-1.16,16.11-2.14,24.16-3.29,10.6-1.52,21.17-3.38,31.8-4.57,4.05-.46,5.59-1.44,5.58-5.82Q406.75,283,406.87,204.76ZM101.79,392.17l-84.62-49c5.74-2,10.6-1.21,15.25-1.89,9.24-1.37,18.66-1.38,28-2.25,12.37-1.16,24.71-2.65,37.07-3.86,1.79-.17,4.4-1.28,4.38,2.6C101.72,355.61,101.79,373.5,101.79,392.17Zm0-148.3c0,25.4-.05,50.8.06,76.2,0,3.51-.4,4.91-4.65,5.18-17.69,1.13-35.34,2.93-53,4.43-10.07.85-20.18,1.38-30.23,2.48-4.18.46-4.86-.93-4.84-4.73q.18-61.76.08-123.51c0-40.51.11-81-.14-121.52,0-5,1.33-6.05,6-5.61,17.83,1.68,35.68,3,53.52,4.51,9.58.81,19.14,2,28.74,2.4,3.82.16,4.57,1.18,4.56,4.78Q101.71,166.18,101.79,243.87Zm-4-170c-10.37-1.57-20.84-2-31.27-3-15.35-1.44-30.66-3.24-46.07-4-.73,0-1.43-.67-2.72-1.32l84.09-48.75V56c0,4.81-.26,9.64.09,14.42C102.14,74,100.36,74.24,97.76,73.85ZM123,15.76,196,25.44l110,14.6q30.82,4.08,61.66,8.18a16.75,16.75,0,0,1,2.64,1L282.26,72.39Q257.12,79,232,85.64c-1.9.51-3.55-.57-5.26-.63-8.22-.3-16.36-1.39-24.53-2.12-13.88-1.25-27.77-2.25-41.61-3.92-9-1.07-18-1.53-27-2-3.94-.22-7.76-1.67-11.77-1.06-1.91.28-2.11-.94-2.11-2.44q0-27.9,0-55.8C119.68,14.69,121.43,15.56,123,15.76Zm-3.27,188.66c0-37.86.13-75.73-.14-113.6,0-5,1.86-5.29,5.68-4.94q38.64,3.48,77.28,6.81c6.44.55,12.9.94,19.36,1.27,4,.21,5.68,1.48,5.66,6.15-.21,55.3-.14,110.61-.14,165.92,0,14.78-.09,29.56.09,44.34,0,3-.8,4-3.72,4.26-13.54,1.06-27.08,2.31-40.62,3.46q-28,2.37-56,4.68c-.67.06-1.33.13-2,.24-4,.68-5.65-.17-5.61-5C119.82,280.16,119.71,242.29,119.71,204.42ZM352,362.79q-100.89,13.44-201.8,26.85c-9.21,1.22-18.45,2.28-27.64,3.64-2.33.34-2.84-.26-2.83-2.42q.09-27.66,0-55.3c0-1.47.12-2.42,2-2.55q12.29-.83,24.54-2c12.88-1.22,25.74-2.6,38.62-3.83,8.34-.79,16.68-1.48,25-2.12,6.37-.48,12.72-1.16,19.07-1.79,5.13-.51,10.09,2,15.08,3.28q62.58,16.34,125.13,32.81c.07.3.13.6.2.9C363.61,361.13,357.8,362,352,362.79Zm42-10.59Q318.23,333.86,242.37,316c-2.82-.67-4.1-1.77-4.1-5.18q.22-106.36,0-212.72c0-3.47,1.4-4.45,4.18-5.11q76.07-18.11,152.09-36.36c4.06-1,4.66-.15,4.65,3.68q-.17,72.24-.07,144.48c0,47.82-.06,95.65.09,143.47C399.22,352.66,398.34,353.25,394,352.2Z"/></g></g></svg>