<svg xmlns="http://www.w3.org/2000/svg" viewBox="0 0 374.03 376.04"><defs><style>.cls-1{fill:#f2a6c9;}</style></defs><g id="Layer_2" data-name="Layer 2"><g id="Layer_1-2" data-name="Layer 1"><path class="cls-1" d="M374,6.62c0-3.83-1-4.56-4.69-4.59-46.9-.48-93.8.45-140.72-.69C165.91-.19,103.16,2.35,40.44.18,28.79-.23,17.11.33,5.46,0,1.14-.11,0,.9,0,5.38q.26,91.2.12,182.4,0,91.44-.12,182.89c0,4.5,1.17,5.54,5.47,5.34,14.58-.68,29.18-.55,43.76-.83,63.05-1.23,126.12.44,189.19-1.06,43.62-1,87.28-.24,130.93-.11,3.66,0,4.68-.79,4.68-4.6Q373.85,188,374,6.62Zm-26.74,8c0,2.27-1.59,2.86-2.57,3.8C330.36,32.3,315.93,46.12,301.58,60c-1.76,1.71-3.41,2.81-6.06,2.69-27.63-1.27-55.29-.52-82.94-.6q-72-.19-143.91,0c-2.83,0-5-.46-6.89-2.82C49.38,44.12,36.84,29,23.58,13ZM297.29,299c0,4.24-1.17,5.11-5.24,5.1-73.93-.15-147.86-.2-221.79.7-4.09.05-5.3-.87-5.28-5.13.18-37.29.11-74.59.11-111.89,0-37.13,0-74.26-.08-111.39,0-3.75.71-5.06,4.83-5Q181,71.86,292.13,72c4.17,0,5.17,1,5.17,5.18Q297.09,188.06,297.29,299ZM13.58,26.55c13.71,14.22,27,28,40.27,41.69,1.36,1.4,1.24,3,1.24,4.6V303.08c0,1.81,0,3.41-1.49,5-13.24,13.58-26.35,27.28-40,41.49ZM23.6,363c11.68-14.14,23.09-27.1,33.45-40.86,5.13-6.82,10.82-8.42,18.87-8.39,69.91.24,139.83.28,209.74-.24,9.32-.07,16,1.79,22.54,8.72,12.56,13.26,26.23,25.47,40.55,39.18Zm337.51-12.51c-8.07-6.77-15.67-13.12-23.24-19.49-9.28-7.82-18.5-15.71-27.84-23.47a7.87,7.87,0,0,1-3.13-6.76q.14-112.89,0-225.78c0-2.22.17-4,2.13-5.69,17.19-14.4,34.29-28.92,52-43.92Z"/></g></g></svg>