<svg xmlns="http://www.w3.org/2000/svg" viewBox="0 0 418.95 414.42"><defs><style>.cls-1{fill:#b57891;}</style></defs><g id="Layer_2" data-name="Layer 2"><g id="Layer_1-2" data-name="Layer 1"><path class="cls-1" d="M418.86,69.39c0-.83,0-1.66,0-2.49.1-2.17-.46-3.34-2.94-4.27-20.74-7.77-41.37-15.84-62.05-23.8C328,28.89,302.14,19,276.33,9c-7.38-2.87-15.13-4.86-22-9h-2c-3.5,1.75-7.37,2.13-11.1,2.92-20.24,4.29-40.52,8.4-60.79,12.57q-27.76,5.72-55.53,11.43-30.15,6.27-60.28,12.6C44.89,43.64,25.13,47.85,5.31,51.74,1.37,52.51,0,53.89,0,58Q.2,207.25,0,356.49c0,4.49,1.56,5.66,5.62,6.45,18.54,3.62,37,7.59,55.5,11.46,19.61,4.1,39.2,8.28,58.82,12.35,21.85,4.53,43.74,8.92,65.59,13.47,21.21,4.41,42.37,9,63.61,13.29,1.69.34,3.43,1.52,5.62.51,4.42-2.06,9.08-3.61,13.65-5.35q37.88-14.49,75.77-29c23.27-8.92,46.48-18,69.81-26.76,3.87-1.46,5-3.45,5-7.49Q418.77,207.42,418.86,69.39ZM8.37,344.66q.18-68.73.07-137.48c0-45.66.06-91.32-.09-137,0-4.45.77-5.42,5.4-4.54,32.33,6.12,64.71,11.94,97.09,17.79q37,6.7,74.15,13.22c4,.7,6.07,1.78,6,6.72q-.3,104.1,0,208.21c0,4-1.2,5.57-4.87,6.23Q99.78,333.34,13.44,349.07C8.71,349.94,8.36,348.68,8.37,344.66Zm234,53.72-206.75-40c0-.34,0-.67,0-1Q49.25,354.6,63,351.88c24.2-4.76,48.42-9.47,72.62-14.28,19.23-3.82,38.44-7.78,57.67-11.6,5.88-1.16,11.69.37,17.49,1,9.61,1.09,19.17,2.62,28.77,3.86,1.62.21,2.85.25,2.85,2.41C242.31,354.84,242.33,376.39,242.33,398.38Zm-5.57-77.59c-10.15-1.41-20.32-2.77-30.53-3.68-3.34-.29-4.16-1.35-4.13-4.46.12-13.44,0-26.89,0-40.33q0-84.15-.08-168.31c0-4.31.45-6.31,5.67-6.61,9.88-.55,19.7-2.23,29.52-3.59,3.67-.51,5.24.14,5.22,4.47-.18,36.35-.11,72.7-.11,109.05,0,36.19-.12,72.37.12,108.56C242.51,320.76,240.83,321.35,236.76,320.79ZM242.4,79.36c0,2.87-.36,4.32-3.83,4.66-9.63.93-19.29,2-28.79,3.79C191.16,91.3,174,84,156.27,81.09c-21.11-3.51-42-8.16-63-12.31L35.63,57.4l-.09-.95c7.52-1.51,15-3.06,22.55-4.52q89.39-17.32,178.76-34.68c3.9-.76,5.74-.85,5.64,4.3C242.14,40.81,242.31,60.09,242.4,79.36ZM261.33,17,392.89,64v.8c-11.08,1.33-22.18,2.59-33.25,4-11.86,1.54-23.68,3.36-35.54,4.85s-23.8,2.67-35.68,4.13c-6.67.81-13.31,1.81-19.93,2.91-6.22,1-7.15.36-7.15-5.93V17Zm0,380.77V363.29c0-8.31.24-16.63-.1-24.92-.17-4,1.29-4.91,4.81-4.45,8.94,1.15,17.9,2.19,26.85,3.32q14.13,1.8,28.26,3.67c9.42,1.23,18.84,2.51,28.27,3.7,8.94,1.13,17.9,2.18,26.86,3.28,5.53.68,11.05,1.4,18.07,2.29ZM403.78,340c-15.61-2-31.24-3.68-46.87-5.51s-31.23-3.72-46.85-5.49c-15.29-1.74-30.59-3.38-45.89-5-2-.22-3-1.09-2.85-3.19.08-1,0-2,0-3q0-110.32-.12-220.67c0-5,1.33-6.12,6.29-6.59,18.62-1.76,37.15-4.32,55.73-6.48s37.18-4.17,55.77-6.3c7.9-.9,15.77-2,23.67-2.88,6.55-.71,6.58-.6,6.58,5.9V207.28c0,42.51-.07,85,.11,127.52C409.38,339.34,408.13,340.52,403.78,340Z"/></g></g></svg>