<svg xmlns="http://www.w3.org/2000/svg" viewBox="0 0 378.06 397.05"><defs><style>.cls-1{fill:#fbf7f8;}</style></defs><g id="Layer_2" data-name="Layer 2"><g id="Layer_1-2" data-name="Layer 1"><path class="cls-1" d="M377.94,198.47V33c0-1.16-.05-2.33,0-3.49.11-2.23-.77-3.41-3.15-3.42-4.59,0-9.15-.46-13.73-.82l-38.16-3q-19.57-1.53-39.16-3c-13.22-1-26.44-2-39.66-3-13.06-.95-26.11-2-39.17-3-12.89-1-25.77-2-38.66-3-13.06-1-26.11-2-39.17-3-13.22-1-26.45-1.86-39.66-3C76.32,3.3,65.08,3.48,54.05,2c-5.83-.79-11.76.18-17.52-1.63-3.1-1-5.42.06-7.09,3.74-8,17.7-16.64,35.11-24.59,52.83C2.93,61.2,0,65.16,0,70.41Q.17,198.72.1,327a10.2,10.2,0,0,0,.78,4.73c9.69,20.46,19.34,40.95,28.7,61.56,1.55,3.41,3.58,4,6.74,3.67,14.46-1.38,28.91-2.9,43.4-3.94,13.06-.93,26.12-1.85,39.17-2.92s26.11-2,39.16-3c12.89-1,25.78-2,38.67-3q19.58-1.47,39.16-3c13.22-1,26.46-1.74,39.67-3,11.09-1.07,22.29-1.13,33.39-2.21,4.92-.48,9.86-.41,14.72-1,15.93-1.83,31.93-2.87,47.92-3.71,4.86-.26,6.5-1.14,6.48-6.33C377.86,309.42,377.94,253.94,377.94,198.47ZM29.11,30l.88.25C30,41.52,29.92,52.78,30,64c0,2.43-.75,2.95-3.08,3-5.6.24-11-.69-17-1.38ZM30,366.94l-.91.2L10,331.52c5.94-.77,11.42-1.61,17-1.42,2.43.08,3,.79,3,3.12C29.93,344.46,30,355.7,30,366.94Zm-5.34-46.66a49.63,49.63,0,0,0-11.43.33c-3.84.61-4.25-.84-4.24-4.14q.16-59.06.07-118.1,0-58.56-.07-117.11c0-3.66.42-5.32,4.76-4.63s8.94.44,13.42.44c2.15,0,3.06.79,2.84,2.93a23,23,0,0,0,0,2.49q0,116.12.11,232.22C30.1,319.09,29,320.6,24.65,320.28ZM47.76,14.56Q104.39,18.75,161,22.75q52.17,3.72,104.35,7.39l74,5.22c.61,0,1.21.15,1.81.23.06.33.11.67.16,1Q313.72,47.79,286,59q-21.86,8.82-43.74,17.61c-3.13,1.26-6.22,2.13-9.56.73a5.54,5.54,0,0,0-2.43-.32c-10.45.7-20.83-.78-31.23-1.18-20.77-.79-41.52-2.17-62.3-3-11.85-.46-23.69-1.45-35.56-1.91C83.09,70.22,65,69,46.88,68.06c-2.19-.11-2.3-1.16-2.29-2.82,0-15.94,0-31.89,0-47.83C44.56,15,45.33,14.38,47.76,14.56ZM44.6,198.06c0-38.36.07-76.73-.1-115.09,0-4.18.94-5.13,5.17-4.91,34.81,1.8,69.63,3.29,104.45,5,26.35,1.25,52.7,2.66,79.06,3.88,2.4.11,3.28.78,3,3.15-.16,1.64,0,3.32,0,5q0,104.88.08,209.75c0,4-.45,5.46-5.18,5.65-31.68,1.25-63.32,3.06-95,4.56-24.86,1.17-49.74,2.15-74.61,3.25a88.14,88.14,0,0,0-10.92.83c-4.59.78-6.15-.25-6.12-5.42C44.72,275.12,44.6,236.59,44.6,198.06ZM341.14,361.61c-10.54.79-21.21,1.62-31.88,2.38Q248.15,368.37,187,372.7L69.28,381c-7,.5-13.93.89-20.86,1.59-2.7.27-3.89,0-3.87-3.17q.2-23.67,0-47.33c0-2.52,1-2.9,3.18-3,14.85-.59,29.68-1.5,44.53-2.09,13.18-.53,26.35-1.38,39.54-2,13-.6,26-1.39,39-2,13.35-.61,26.74-1,40-2.16,8.2-.71,16.45.18,24.65-1.5,5.47-1.13,10.22,2.81,15.15,4.78,29.81,11.87,59.56,23.91,89.34,35.87C340.59,360.29,341.36,360.22,341.14,361.61Zm26.74-6.37c-9.48-3.44-18.7-6.77-27.9-10.13-29.82-10.91-59.62-21.87-89.48-32.67-3-1.07-4.29-2.14-4.28-5.71q.22-108.14.09-216.26c0-2.58.1-4.39,3.2-5.51Q307.62,64,365.61,42.79c.6-.22,1.21-.4,2.27-.75Z"/></g></g></svg>