<svg xmlns="http://www.w3.org/2000/svg" viewBox="0 0 394.16 402.16"><defs><style>.cls-1{fill:#8b5a6d;}</style></defs><g id="Layer_2" data-name="Layer 2"><g id="Layer_1-2" data-name="Layer 1"><path class="cls-1" d="M393.83,72.54c0-2.4.59-4.85-1.64-7-6.5-6.13-12.4-12.86-18.55-19.35-13-13.72-26.34-27.13-39.54-40.66-.58-.59-1.37-1.12-1.65-1.84-1.7-4.33-5.18-3.91-8.74-3.49C312.78,1.53,301.86,2.87,290.92,4c-11.13,1.15-22.29,2-33.42,3.15-14.2,1.5-28.38,3.32-42.59,4.81-11.29,1.19-22.62,1.94-33.91,3.13C167,16.59,153,18.46,138.9,19.93c-11.45,1.21-23,1.9-34.42,3.11-17.31,1.83-34.59,4-51.89,5.87C36.74,30.65,20.9,32.6,5,33.7c-5,.35-5,2.39-5,6Q.11,120.47.05,201.2v161c0,1.5,0,3,0,4.49s.61,2.05,2.06,2.2c12.76,1.3,25.5,2.7,38.25,4,10.81,1.1,21.62,2,32.42,3.14,11.93,1.23,23.84,2.6,35.76,3.84,7.37.77,14.75,1.38,22.12,2.15,11.93,1.24,23.84,2.58,35.76,3.84,7.37.78,14.72,1.65,22.11,2.23,11.62.92,23.18,2.53,34.78,3.74,10.63,1.12,21.28,2.05,31.92,3.14q18.13,1.86,36.27,3.87c7.83.88,15.64,1.92,23.46,2.83,8,.93,14.83,1.63,21.65-6.27a537.58,537.58,0,0,1,43.59-45.56c11.23-10.27,14-21.1,13.94-35.56C393.54,233.66,393.86,153.1,393.83,72.54ZM65.18,38.93q28.95-2.86,57.88-5.71c18.49-1.79,37-3.47,55.46-5.27,25.9-2.51,51.79-5.1,77.69-7.62,18.32-1.79,36.65-3.42,55-5.34,4.13-.43,5,1,5,4.87-.19,15.44-.15,30.88,0,46.32,0,3.18-.51,4.48-4.22,4.78-14.47,1.19-29,1.94-43.44,2.94-19.92,1.39-39.83,2.78-59.75,4-14.32.9-28.71,1.47-42.92,3.14-9.74,1.15-17.77-2.62-26.23-5.33C106.78,65.25,74.12,54.4,41.41,43.66c-.92-.3-1.8-.75-2.71-1.14l-.1-.92ZM9.77,349.41q.2-74.27.08-148.52,0-73.51-.07-147c0-4.07,0-5.89,5.21-4.3C58.7,62.84,102.5,75.81,146.3,88.79c2.95.88,4.18,2.15,4.18,5.47q-.16,107.14,0,214.3c0,3.36-1.29,4.57-4.21,5.44Q80.59,333.49,15,353.22C10.54,354.57,9.76,353.83,9.77,349.41Zm301.52,38.33c-15-1.43-30.05-2.83-45.06-4.3q-28.2-2.76-56.41-5.61-39.09-3.87-78.18-7.71c-18.8-1.82-37.62-3.49-56.43-5.29-12.17-1.16-24.33-2.41-36.49-3.63l-.15-1.06Q73.76,348.58,109,337c14.4-4.72,29-9,43.16-14.22,8-2.94,15.76-.7,23.47-.37,6.32.26,12.81.64,19.2,1.36,12.45,1.39,25.06,1.28,37.57,2.27,19.9,1.58,39.83,2.73,59.73,4.18,6.87.5,13.85.2,20.71,1.61,2.53.52,3.33,1.19,3.31,3.65-.07,16.27-.13,32.55,0,48.82C316.17,388.36,313.86,388,311.29,387.74Zm-1-66.23c-12.36-1.28-24.8-1.7-37.2-2.49-19.52-1.24-39-2.54-58.54-3.74-13.24-.81-26.47-1.78-39.73-2.17-14.21-.41-14.22-.15-14.22-14q0-101.37-.08-202.73c0-4.08.69-5.73,5.27-5.92,14.4-.57,28.77-1.72,43.16-2.67C227.62,86.52,246.3,85.22,265,84c12.57-.81,25.15-1.5,37.72-2.23,1.33-.07,2.66,0,4,0,9.37-.32,9.37-.32,9.37,9V201.32c0,38.36-.08,76.71.1,115.06C316.19,321.15,315.07,322,310.28,321.51ZM332.05,18.62l1.14-.63,50,48.48c-6.94.74-12.67.65-18.35,1.14-9.49.83-19.05,1-28.54,2.16-2.12.26-4.3.51-4.28-3C332.11,50.73,332.05,34.68,332.05,18.62Zm1.05,366.3c-1.34-.45-1-1.4-1-2.14,0-15.25.07-30.51-.09-45.76,0-3.38,1.16-4.4,4.31-4,14.75,1.64,29.54,2.6,44.37,3a11.65,11.65,0,0,1,2.13.68ZM378.9,326c-14.53-1.14-29.09-2.07-43.65-2.94-2.28-.14-3.43-.75-3.21-3.16.08-.82,0-1.66,0-2.49q0-115.8-.1-231.62c0-4.65,1-6,5.9-6.18,13.57-.45,27.11-1.68,40.66-2.74,5.93-.46,6.22-.34,6.22,5.53V201.44c0,39.68-.1,79.37.12,119.05C384.88,325.39,383.24,326.33,378.9,326Z"/></g></g></svg>