<svg xmlns="http://www.w3.org/2000/svg" viewBox="0 0 364.08 386.99"><defs><style>.cls-1{fill:#966377;}</style></defs><g id="Layer_2" data-name="Layer 2"><g id="Layer_1-2" data-name="Layer 1"><path class="cls-1" d="M364,193.52V64c0-19.43-.17-38.86.13-58.29C364.15.9,362.6-.27,358.21.05c-4.1.3-8.23.84-12.29.93-15.7.36-31.36,1.3-47,2q-23.26,1-46.53,2-24.26,1-48.52,2c-15.34.64-30.68,1.35-46,2l-48,2c-15.18.63-30.35,1.48-45.52,2-19,.59-38,1.7-57,2.18C-1,15.28.07,14,.07,22.1q0,171.42,0,342.82c0,1.16.08,2.33,0,3.49C-.18,370.84.55,372,3.31,372c6.27-.07,12.54.51,18.78.73,16,.59,32,1.37,48,2.06q23.27,1,46.52,2c15.84.65,31.68,1.37,47.52,2,15.35.6,30.68,1.36,46,2l49.52,2c15,.62,30,1.42,45,2,17.51.64,35,1.42,52.51,2.09,7.62.29,6.71,1,6.72-6.46Q364,286.95,364,193.52ZM16.18,351.84c-4.83,2.43-4.86,2.41-4.86-3.15q0-152,0-304c0-3.61.36-7.23.56-11.08,4.46,1.11,7.9,3.48,11.57,5.31C49,51.71,74.46,64.57,100,77.27c2.73,1.35,3.82,2.84,3.81,6q-.15,110.12,0,220.25c0,3.37-1.16,4.92-4,6.36C71.87,323.78,44,337.84,16.18,351.84Zm330.06,21.69q-26.62-1.32-53.25-2.33Q226.55,368.56,160.1,366q-56.5-2.16-113-4.26c-4.64-.18-9.27-.62-15.18-1l54.74-30.62c3.9-2.17,8.12-3.89,11.66-6.53,10.45-7.82,22-9.09,34.33-6.59a8.72,8.72,0,0,0,2,.12c17.27-.71,34.48,1,51.74,1.05,15.58,0,31.17.66,46.73,1.25,11.27.42,22.54.13,33.79.74q35.76,1.91,71.56,2c4.39,0,6.48,1.39,6.81,6.6.87,13.72,2.63,27.38,4.2,41C349.78,372.53,349.43,373.69,346.24,373.53Zm-2-251.24V194q0,55.8,0,111.6c0,6.89,0,6.84-6.67,6.7-21.25-.45-42.5-.8-63.75-1.3-26.39-.63-52.77-1.36-79.16-2.05-25.06-.66-50.12-1.41-75.18-1.87-4.4-.08-5.57-1.45-5.56-5.77q.18-107.88,0-215.75c0-4.41,1.3-5.65,5.63-5.69,19.59-.17,39.18-.58,58.76-1.06,40.33-1,80.67-1.81,121-3.29,14-.51,27.91-.07,41.82-1.12,3.76-.28,3.11,2,3.12,4Q344.25,100.37,344.23,122.29Zm5.4-105.81Q347.25,39,345,61.48a2.58,2.58,0,0,1-2.34,2.67,21.19,21.19,0,0,1-4.39.73c-18.43-.7-36.81.87-55.22,1.23-14.42.28-28.88.08-43.24,1-10.8.73-21.56.24-32.31.78Q171,69.77,134.46,70a39.3,39.3,0,0,0-7.86,1c-13,2.75-22.89-4.38-33.21-10.14Q64.14,44.47,35,28c-.67-.38-1.3-.82-2.7-1.7,5.59-.39,10.3-.86,15-1,30.37-1.15,60.74-2.19,91.11-3.34q52-2,104-4.08t104-4.34C348.68,13.41,349.92,13.84,349.63,16.48Z"/></g></g></svg>