<svg xmlns="http://www.w3.org/2000/svg" viewBox="0 0 372.15 375.2"><defs><style>.cls-1{fill:#b87a93;}</style></defs><g id="Layer_2" data-name="Layer 2"><g id="Layer_1-2" data-name="Layer 1"><path class="cls-1" d="M372,9.27a27.1,27.1,0,0,1,0-3c.28-2.49-.94-3-3.2-3.05-10.74-.14-21.49-.44-32.22-.74-41.46-1.13-82.94.39-124.42-1C170.23,0,128.24,2,86.26.47,59.38-.52,32.44.38,5.52.18,1.25.15,0,1.05,0,5.57Q.28,96.52.13,187.46C.13,248.08.2,308.71,0,369.34c0,5,1.41,6,6.06,5.85,29.84-.79,59.68.2,89.54-.88,41.6-1.5,83.26.06,124.92-1,48.42-1.19,96.9.15,145.35-1.12,4.87-.12,6.28-1,6.27-6.16Q371.89,187.66,372,9.27Zm-25.53,5.89c-5.36,5-10,9.36-14.6,13.64-11.49,10.56-23,21.06-34.48,31.66a8.78,8.78,0,0,1-6.6,2.68C219.72,61.57,148.62,62.27,77.53,62,60.22,62,60.27,61.63,49.6,47.68c-8.64-11.3-17.42-22.5-27-34.9ZM61.33,187.67c0-37,.06-74.07-.1-111.1,0-4.27.87-5.62,5.41-5.55,73.9,1.16,147.81,1,221.72,1.13,3.92,0,5,1,5,5q-.18,110.59,0,221.19c0,4-1.22,4.93-5,4.93q-82.71.09-165.43.45c-18.6.07-37.2.25-55.79.66-4.38.1-5.89-.79-5.86-5.59C61.43,261.73,61.33,224.7,61.33,187.67ZM13.16,347.39V27C18.85,33.34,23.89,39,29,44.56,36,52.3,43,60,50.1,67.71A7.34,7.34,0,0,1,52,73.13q0,114.54,0,229.1a6.76,6.76,0,0,1-1.54,5Q32.33,327.12,14.3,347.05C14.13,347.24,13.74,347.23,13.16,347.39Zm332,12.84L22.73,362.59c4.13-5.43,7.57-10,11.06-14.53,7.91-10.24,15.9-20.42,23.72-30.72A7.92,7.92,0,0,1,64.2,314c38-1.68,76.06-.68,114.09-.64,37.2,0,74.39-.75,111.59-1.14,2.75,0,5.06.35,7.23,2.36q23.37,21.67,46.94,43.12a7.93,7.93,0,0,0,2.27,1C345.94,359.22,345.57,359.73,345.2,360.23ZM359.89,350c-7.21-5.76-13.89-11.07-20.53-16.42-11.11-8.95-22.14-18-33.31-26.84a6.6,6.6,0,0,1-2.9-5.78q.12-113.34.07-226.67c0-1.61-.23-3.18,1.39-4.49C322.82,55.2,341,40.52,359.89,25.26Z"/></g></g></svg>