<svg xmlns="http://www.w3.org/2000/svg" viewBox="0 0 370.03 392.84"><defs><style>.cls-1{fill:#88596d;}</style></defs><g id="Layer_2" data-name="Layer 2"><g id="Layer_1-2" data-name="Layer 1"><path class="cls-1" d="M369.8,64.78c-5.09-20.37-10.4-40.69-15.29-61.11-.8-3.33-2.25-3.8-5-3.64-14.64.81-29.27,1.85-43.9,2.84-15.63,1.06-31.26,2-46.88,3l-46.38,3q-23.21,1.48-46.39,3c-15.29,1-30.6,1.77-45.88,3C106.57,16,93,16,79.52,17.15c-5.61.47-11.21.54-16.81.9C43.81,19.29,24.93,20.9,6,21.81c-4.77.23-6,1.25-6,6.07C.18,84,.11,140.15.12,196.28V277.5c0,29.56.06,59.12-.09,88.68,0,3.72,1,5,4.74,4.73,7.77-.61,15.5.78,23.25,1.13,17.1.78,34.14,2.75,51.23,3.71,15.31.86,30.59,2,45.89,2.95q23.45,1.5,46.89,3l45.88,3c15.46,1,30.93,1.83,46.38,3,13.49,1,27.06,1.07,40.53,2.25,5.62.49,11.23.35,16.8,1,9.52,1,19.05,1.6,28.62,1.9,2.67.09,3.52-.82,4.14-3.45,3-12.93,6.55-25.75,9.6-38.68,2.15-9.08,5.95-17.89,6-27.35q.13-127.07.05-254.11A18.36,18.36,0,0,0,369.8,64.78ZM83.7,29Q122,26.6,160.18,24.24C179.06,23.1,198,22.11,216.83,21c25-1.52,50-3.17,75-4.67,14.74-.89,29.49-1.56,44.24-2.43,2.91-.17,4.16.58,4.13,3.78-.13,14.78-.09,29.56,0,44.34,0,2.57-.5,3.7-3.5,4-14.18,1.15-28.4,1.32-42.61,1.95Q268.55,69,243,70c-14.7.57-29.4,1.37-44.1,2-16.19.64-32.36,1.8-48.57,1.92a45.78,45.78,0,0,0-7.35,1c-13.28,2.3-24-4.76-35.24-9.71-23.6-10.38-47.11-21-70.65-31.49-.71-.32-1.35-.79-2.79-1.63ZM15.6,352.54c-5.21,2.1-5.39,2-5.39-3.78q0-76.45,0-152.92V44.41c0-6.18.07-6.22,5.53-4C49.83,54.17,83.9,68,118.08,81.6c3.79,1.51,4.75,3.45,4.74,7.29q-.16,107.6,0,215.19c0,4-1.18,5.71-4.89,7.19C83.77,324.89,49.7,338.76,15.6,352.54Zm321.66,26.51c-15.89-1-31.78-1.93-47.66-2.88l-37.75-2.28q-47.67-2.91-95.35-5.8c-19-1.13-38.09-2.11-57.13-3.24-21.35-1.27-42.69-2.64-64-4-.05-.27-.1-.55-.14-.82q28-12.52,56-25c10.11-4.5,20.47-8.5,30.28-13.56,8.55-4.4,17.24-3.69,26.13-2.89a21.64,21.64,0,0,0,2.94.41c12.28-.69,24.48.89,36.73,1.18,16.85.4,33.7,1.37,50.56,2,14.53.56,29.06,1.42,43.6,2,16.36.61,32.7,1.81,49.08,1.93,2.45,0,4.89.78,7.35.94,2.21.14,2.21,1.56,2.21,3.1,0,15.44,0,30.88,0,46.32C340.17,378.64,339.44,379.19,337.26,379.05Zm-2.84-62.5c-9.53-1.3-19.21-.73-28.83-1.27-21.53-1.2-43.11-1.52-64.66-2.31-26.19-1-52.39-1.82-78.55-3.19-8-.42-15.92-.76-23.87-.75-4.45,0-5.92-1.31-5.9-6,.18-43.17.11-86.35.11-129.52,0-27.9.11-55.8-.11-83.7,0-4.64,1.43-5.89,5.88-6q32.34-.78,64.66-2.1c28.34-1.14,56.67-2.52,85-3.73,16.41-.7,32.82-1.23,49.23-1.93,2.87-.12,2.76,1.66,2.76,3.55V196.68c0,38.2-.07,76.39.09,114.59C340.25,315.86,339.34,317.22,334.42,316.55ZM354,47.22l.82-.32,4.94,14.84c1.06,3.17-1.48,2.87-3.24,3.49-2.95,1-2.49-1.07-2.5-2.63C354,57.48,354,52.35,354,47.22Zm5.79,283.66c-1.57,5-3.26,10-4.9,14.95h-.88c0-5.29,0-10.58,0-15.86,0-1.43-.27-3.34,2.28-2.38C358,328.19,360.87,327.57,359.83,330.88Zm1.24-134.5q0,57.78,0,115.56c0,2.85.53,5.88-4.1,5.29-2-.26-3.09-.84-2.94-3,.06-.82,0-1.66,0-2.49q0-115.3.07-230.61c0-1.84-1.44-4.63,1.84-5.36,3.66-.82,5.23.31,5.22,4.55C361,119,361.07,157.7,361.07,196.38Z"/></g></g></svg>