<svg xmlns="http://www.w3.org/2000/svg" viewBox="0 0 413.87 410.14"><defs><style>.cls-1{fill:#aa7086;}</style></defs><g id="Layer_2" data-name="Layer 2"><g id="Layer_1-2" data-name="Layer 1"><path class="cls-1" d="M413.87,67.47c0-2.75-.89-4-3.31-5.15-16.05-7.44-32-15-48-22.59-25.33-12-50.83-23.64-75.88-36.19C278.93-.33,271.79-.69,263.79.85,246,4.27,228.15,7.47,210.3,10.59,193.88,13.47,177.41,16,161,18.92c-15.75,2.76-31.45,5.88-47.22,8.61-18.35,3.18-36.77,6-55.12,9.19-17.84,3.11-35.59,6.83-53.49,9.56C.46,47,0,48.68,0,52.52Q.14,128.76.06,205v97.18C.06,320.8.11,339.4,0,358c0,3.42.42,5.07,4.66,5.68,16,2.31,31.91,5.27,47.82,8.1,15.76,2.81,31.46,5.88,47.22,8.61,18.35,3.18,36.77,6,55.12,9.19,17.85,3.12,35.65,6.56,53.49,9.76,18.48,3.32,37,6.44,55.47,9.8,7.76,1.41,14.93,1.9,22.38-2.54,8.54-5.09,18-8.53,27.07-12.81q48.66-23,97.31-46.1c2.41-1.13,3.33-2.39,3.32-5.14Q413.75,205,413.87,67.47ZM192.47,309.54q0-104.4-.07-208.79c0-3.76.49-5.3,4.87-5.66,19.63-1.62,39.2-3.85,58.81-5.71,8.22-.78,8.23-.62,8.23,7.86V204.87c0,37.21-.09,74.41.11,111.62,0,4.73-1.23,5.24-5.62,4.71-15-1.83-30-3.06-45-4.55-6.26-.63-12.51-1.42-18.78-1.94-1.91-.16-2.71-.8-2.58-2.68C192.53,311.2,192.47,310.37,192.47,309.54ZM36.27,51.9q73.23-12,146.47-24c25.85-4.23,51.74-8.27,77.58-12.58,3.14-.52,4.08-.09,4.06,3.21-.13,18.75-.09,37.52,0,56.28,0,2.24-.21,3.51-3.08,3.77-7.83.69-15.61,1.93-23.43,2.84-11.57,1.35-23.2,2.22-34.7,4-12.53,1.92-24.42-.52-36.47-3.3C130.47,73.74,94.21,65.67,58,57.48c-7.29-1.64-14.57-3.32-21.86-5ZM13.16,349.61c-3.93.94-5.48.53-5.25-4.14.42-8.61.12-17.26.12-25.89V204.51Q8,134.78,8,65c0-4.08.29-5.69,5.15-4.66,42.69,9,85.44,17.81,128.17,26.65,12,2.48,23.91,5,35.91,7.27,3.14.59,4.4,1.68,4.4,5.09q-.15,105.6,0,211.2c0,3.36-1.16,4.48-4.35,5.13Q106.1,330.26,35,345C27.71,346.52,20.39,347.86,13.16,349.61ZM264.48,338c-.46,17.25-.29,34.53-.08,51.8.05,4.19-.45,5.68-5.31,4.86-40-6.77-80.14-13.25-120.23-19.78Q87.6,366.51,36.34,358.22l-.05-.74c8.58-2,17.15-4,25.74-5.91,33.21-7.47,66.4-15,99.64-22.31,9.57-2.11,19-6,28.87-5.47,11,.57,21.84,2.38,32.76,3.58,7.36.81,14.71,1.67,22.09,2.18,4.27.29,8.44,1.27,12.78,1.24S264.62,332.74,264.48,338Zm18.7-322.25L391.88,63.6l-.14,1.05c-15.67,1.6-31.36,3.09-47,4.83-16.64,1.84-33.24,3.93-49.87,5.87-3.09.36-6.25-.23-9.32,1-1.52.59-2.37-.48-2.36-2.18C283.19,54.92,283.18,35.71,283.18,15.73Zm0,378.58V370.78c0-10.79.05-21.58-.05-32.36,0-3.5-.12-5.35,4.81-4.21,7,1.62,14.33,1.61,21.52,2.39,11.25,1.24,22.49,2.59,33.74,3.82,10.13,1.11,20.26,2.1,30.39,3.15a133.4,133.4,0,0,1,18.36,2.82Zm116.06-59c-15.3-1.76-30.64-3.14-46-4.7q-22.47-2.3-44.94-4.66c-7.25-.75-14.49-1.64-21.75-2.13-2.92-.2-3.69-1.35-3.42-4a44.6,44.6,0,0,0,0-4.48q0-111.57-.06-223.16c0-3.65.13-5.91,4.92-6.23,12-.81,24-2.34,36.06-3.56,15-1.52,30-3,45-4.53,10.88-1.1,21.75-2.19,32.62-3.42,3.54-.4,3.16,1.84,3.16,4q0,19.92,0,39.85V205c0,41.84-.09,83.68.12,125.53C405,335.46,403.34,335.77,399.23,335.3Z"/></g></g></svg>