<svg xmlns="http://www.w3.org/2000/svg" viewBox="0 0 399.93 405"><defs><style>.cls-1{fill:#f8d7e5;}</style></defs><g id="Layer_2" data-name="Layer 2"><g id="Layer_1-2" data-name="Layer 1"><path class="cls-1" d="M399.82,202.73q0-80,0-160c0-2.67.44-5.74-3.37-5.75-6.74,0-13.29-1.54-20-2.12s-13.26-1.63-19.93-2.22c-9.87-.87-19.66-2.58-29.51-3.69-9.39-1-18.77-2.28-28.17-3.29-10-1.07-20-2.64-30-3.72-6.32-.69-12.64-1.33-19-2.12-9.83-1.23-19.64-2.63-29.48-3.84-6.8-.83-13.63-1.37-20.43-2.19-9.84-1.2-19.65-2.67-29.5-3.78-9.4-1.05-18.77-2.27-28.17-3.29-10-1.07-20-2.64-30-3.72-6.32-.69-12.7-1-18.94-2.2-5.65-1-10.76-2-15.36,3a41.68,41.68,0,0,1-4.78,4.11q-19,14.91-37.82,30c-10.68,8.53-21.08,17.42-32,25.59C.51,65.66,0,67.71,0,70.77Q0,168.2,0,265.62q0,34.63,0,69.27c0,2-.17,3.84,1.72,5.33,8.43,6.64,16.75,13.41,25.13,20.1,16.51,13.2,33.06,26.34,49.53,39.59,3.88,3.13,7.66,5.82,13.12,4.91,6.1-1,12.26-1.66,18.44-2.24,10-.94,20-2.56,30-3.78,6.64-.82,13.31-1.35,19.94-2.17,9.84-1.2,19.65-2.61,29.49-3.81,6.8-.83,13.63-1.37,20.43-2.21,9.51-1.18,19-2.61,28.5-3.77s18.8-2,28.19-3.12c10-1.2,20-2.63,30-3.86,6.64-.81,13.31-1.34,19.94-2.16,9.84-1.21,19.65-2.62,29.49-3.82,6.8-.83,13.63-1.38,20.43-2.2,9.84-1.2,19.64-2.85,29.51-3.66,4.53-.37,6.12-1.48,6.1-6.31C399.76,308.72,399.82,255.72,399.82,202.73Zm-320-186.9c0,18.07,0,35,0,51.94,0,2.37-.62,3.29-3,3.07C65.82,69.86,54.87,69,43.92,68c-5.08-.45-10.18-.29-15.29-1-4.8-.64-9.74-.43-15.11-1.73C35.53,48.86,57.23,32.65,79.77,15.83ZM9,323Q9,202.43,8.9,81.82c0-4.41.74-5.61,5.52-5.21,20.5,1.72,41,2.94,61.57,4.21,3,.19,3.84,1.23,3.83,4.22q-.1,117.36,0,234.72c0,3.56-1.5,4.06-4.35,4.24-22,1.43-44,3-66,4.45C8.6,326.66,9,324.8,9,323Zm70.74,66L13.13,339.22c10.5-1.17,20.08-1.85,29.7-2.36,10.44-.55,20.85-1.81,31.26-2.91,4.21-.44,5.93.49,5.81,5.38C79.53,355.52,79.76,371.73,79.76,389Zm21-374q33.4,3.69,66.8,7.49L269.94,34l90,10.12c.6.07,1.37,0,1.7,1.36C321.42,57.29,281.31,69,241.28,80.91A38.13,38.13,0,0,1,222.44,82c-4.64-.91-9.47-.48-14.24-1-10.94-1.22-22-1.26-33-2.23-17.35-1.54-34.7-2.94-52.08-4.06-7.84-.51-15.65-1.88-23.54-1.81-2.33,0-3.17-.61-3.15-3.05.08-17.43.12-34.87,0-52.3C96.41,13.63,98.81,14.77,100.73,15ZM96.5,201.87c0-38,.07-76.06-.11-114.09,0-4.2,1-5.4,5.17-5,16,1.37,32.08,2.53,48.12,3.69s32.1,2.24,48.14,3.35c9.93.68,19.85,1.41,29.79,2,2.21.13,2.91,1,2.73,3.07-.08.82,0,1.66,0,2.49q0,105.14.1,210.26c0,4.28-.93,5.41-5.37,5.64-16.56.82-33.08,2.29-49.62,3.48-15.72,1.14-31.44,2.22-47.15,3.34-9.1.65-18.21,1.19-27.29,2.05-3.84.37-4.6-1-4.59-4.61C96.55,278.94,96.5,240.4,96.5,201.87ZM341.81,362.74q-110.08,12.42-220.17,24.82c-7.25.82-14.53,1.48-21.77,2.42-2.67.34-3.43-.4-3.42-3.07q.15-25.91,0-51.81c0-2.87,1.22-3,3.55-3.17,16.21-1,32.39-2.43,48.58-3.72q15.48-1.24,31-2.28c15-1,30.08-2.35,45.08-3.91,8.78-.92,16.85,1.76,25,4.13Q305.35,342.47,361,359.06c.24.07.4.42,1.13,1.21C355.06,361.13,348.44,362,341.81,362.74Zm49.12-9.09c-14.82-4-29.32-7.83-43.81-11.75-34.05-9.2-68.08-18.51-102.18-27.55-3.16-.84-3.83-2.05-3.83-5q.1-106.89,0-213.78c0-3.24,1-4.34,4.2-5.21q71-19,141.89-38.31c1.11-.3,2.27-.42,3.74-.69Z"/></g></g></svg>