<svg xmlns="http://www.w3.org/2000/svg" viewBox="0 0 372.04 375.02"><defs><style>.cls-1{fill:#ad7189;}</style></defs><g id="Layer_2" data-name="Layer 2"><g id="Layer_1-2" data-name="Layer 1"><path class="cls-1" d="M371.93,187.8q0-91.17.11-182.36c0-4.43-1.12-5.5-5.49-5.44-31.67.46-63.34,0-95,1C231.58,2.2,191.6.8,151.61,1.85,103.35,3.13,55,1.4,6.77,3.07-.92,3.34.06,2.12.06,9.59q0,177.87,0,355.75c0,1.16.09,2.33,0,3.48C-.2,371.22.86,372,3.19,372c9.59,0,19.17.54,28.73.77,42.62,1,85.26,0,127.9.91,54.08,1.17,108.19,0,162.28,1.22,14.45.32,28.91.08,43.36,0,7.45,0,6.45.85,6.45-6.22Q372,278.24,371.93,187.8Zm-22-175.18c-8.64,11.15-16.33,21.08-24,31C323.23,47,320,50.11,318,53.84c-3.5,6.45-8.83,8-15.59,8-23.09-.11-46.18.07-69.28.09-33.72,0-67.45-.15-101.18.08-16.6.11-33.19,1.33-49.81.92-1.77,0-3.59.35-5.17-1.1C60.34,46.55,43.7,31.35,27.39,14.94ZM79,76.86c0-4.7,2.11-4.91,5.72-4.91q81.75-.12,163.49-.41c19.27-.07,38.54-.25,57.81-.68,4.26-.09,5.16,1.26,5.14,5.29-.14,37.21-.08,74.42-.08,111.63,0,37-.07,74.09.09,111.13,0,4.11-1,5.3-5.2,5.24-73.93-1-147.86-1.11-221.8-1.07-3.75,0-5.16-.85-5.16-4.95Q79.21,187.51,79,76.86ZM12.87,349.33v-324c8.84,7.1,16.82,13.5,24.78,19.92,9.82,7.91,19.58,15.9,29.49,23.7a6.58,6.58,0,0,1,2.74,5.87q-.09,112.59,0,225.19c0,2,.09,3.78-1.82,5.31q-26.65,21.27-53.17,42.7C14.39,348.43,13.84,348.71,12.87,349.33Zm14.76,10.76-.51-1.16q8.39-7.71,16.79-15.42c10.26-9.44,20.54-18.86,30.74-28.37A10.48,10.48,0,0,1,82.6,312c71.42,1.69,142.86,1,214.29.92,10.57,0,18.17,2.53,24.27,12,7.51,11.67,16.89,22.14,25.45,33.14.79,1,1.89,1.87,2.08,4.25Zm331.92-12.36c-5.12-4.08-8.57-9-12.57-13.28-8.24-8.88-16.24-18-24.44-26.89a9.09,9.09,0,0,1-2.51-6.67q.09-113.35,0-226.7c0-2.18.1-4.11,1.77-5.93C334,55,345.94,41.72,358,28.45a7.35,7.35,0,0,1,1.56-.92Z"/></g></g></svg>