<svg xmlns="http://www.w3.org/2000/svg" viewBox="0 0 413.86 411.23"><defs><style>.cls-1{fill:#f3aece;}</style></defs><g id="Layer_2" data-name="Layer 2"><g id="Layer_1-2" data-name="Layer 1"><path class="cls-1" d="M413.83,206.17V132.91q0-40.86,0-81.72c0-2.63-.18-3.76-3.52-4.21-12-1.64-24-3.95-35.95-6-12.61-2.21-25.19-4.54-37.8-6.7S311.28,30.14,298.65,28s-25.19-4.55-37.81-6.71-25.3-4.09-37.93-6.23C210,12.86,197,10.56,184.1,8.29c-12.61-2.21-25.17-4.73-37.84-6.55-5.22-.75-10.47-3.27-16-.4-23,11.88-46.4,23-69.8,34.07-19,9-37.8,18.54-56.74,27.71C1,64.45,0,66.09,0,69.16Q.13,205.71,0,342.24c0,3.13,1.07,4.67,3.78,6q31.95,15.33,63.79,30.87,31.65,15.41,63.24,31a7.9,7.9,0,0,0,5.36,1c9.71-1.85,19.47-3.47,29.23-5.06,16.65-2.72,33.33-5.25,50-8.07s33.15-6,49.76-8.85c14.71-2.51,29.5-4.58,44.21-7.12,18.19-3.14,36.3-6.77,54.51-9.8,15.35-2.55,30.67-5.27,46-7.75,4.35-.7,4-2.49,4-5.3Q413.83,282.67,413.83,206.17ZM127.48,16.57V76.7L22.11,65.52,22,64.44ZM9,331.24q.15-62.79.06-125.58T9,80.08c0-3.64.29-4.91,4.74-4.41C35.81,78.11,58,80,80.06,82.1c14.19,1.35,28.37,2.79,42.57,4.09,3.61.32,5.2,1.34,5.19,5.63q-.27,113.87,0,227.74c0,3.77-1.1,5.19-4.71,5.52-18.49,1.66-37,3.43-55.45,5.2-18,1.73-36,3.26-53.94,5.4C9.2,336.21,9,334.83,9,331.24Zm118.7,43.95v19.65L21.59,346.72c4.16-2.85,8.5-1.61,12.36-2.23,10.83-1.72,21.85-2.14,32.77-3.29s21.75-2.67,32.64-3.88c9-1,17.93-1.75,26.9-2.6,2.48-.24,1.37,1.7,1.38,2.61C127.71,350,127.69,362.57,127.69,375.19ZM146.21,20.27c-.05-4.08.93-4.81,5-4.15Q219,27.17,286.79,37.86q42.48,6.75,85,13.39c1.95.31,3.86.81,6.35,1.34-49.92,11.55-99.23,23-148.59,34.29-6,1.37-12.12-.77-18.2-1.11-8-.44-15.9-1.79-23.85-2.71-11.37-1.31-22.74-2.53-34.1-3.9-2.26-.28-5.51,1.09-6.55-.82-1.13-2.06-.5-5.14-.5-7.77C146.29,53.8,146.42,37,146.21,20.27Zm.1,185.51c0-37.37.08-74.75-.11-112.13,0-4.21,1.43-5,5.05-4.62,18.61,2,37.24,3.86,55.86,5.78,3.62.37,7.26,1.12,10.87,1,3.83-.14,4.52,1.27,4.51,4.84q-.17,105.15,0,210.32c0,3.41-.83,4.24-4.24,4.56-22.11,2.06-44.18,4.38-66.25,6.76-4.36.48-5.85-.54-5.82-5.35C146.41,279.88,146.31,242.83,146.31,205.78ZM377.25,359.1q-37.29,6-74.59,11.94-74,11.77-147.9,23.55c-8.46,1.35-8.45,1.47-8.45-6.89,0-17.1.07-34.2-.06-51.3,0-3.11.67-4,4-4.28,11.07-.94,22.05-2.79,33.12-3.68,7.2-.57,14.35-1.52,21.53-2.13,5.38-.46,10.74-1,16.08-1.87,7.65-1.22,14.86,1.6,22.13,3.24,26.92,6.06,53.79,12.35,80.69,18.53q26.79,6.15,53.6,12.25Zm22.66-8.61q-81.36-17.31-162.83-34.14c-2.75-.57-3.78-1.56-3.77-4.53q.12-106.12,0-212.26c0-2.91.91-4,3.7-4.58Q318.7,78,400.33,60.7c5-1.07,5,.7,5,4.48q-.12,70.25,0,140.5c0,46.84-.07,93.67.12,140.51C405.46,351,404.39,351.44,399.91,350.49Z"/></g></g></svg>