<svg xmlns="http://www.w3.org/2000/svg" viewBox="0 0 419.96 414.57"><defs><style>.cls-1{fill:#df93b7;}</style></defs><g id="Layer_2" data-name="Layer 2"><g id="Layer_1-2" data-name="Layer 1"><path class="cls-1" d="M419.82,60.35c0-.83-.05-1.66,0-2.49.11-1.82-.2-2.63-2.49-3.18C401.61,50.86,385.8,47.35,370,43.74c-28.56-6.52-57-13.44-85.56-20.18C262.4,18.35,240.3,13.31,218.3,7.91,207.7,5.31,196.91,3.44,186.52,0h-4c-.17.26-.28.68-.51.76Q93.35,30.31,4.65,59.68C1.05,60.87,0,62.27,0,66q.17,138.8.08,277.6c0,9.75,0,9.82,9.05,12.83q86.39,28.71,172.75,57.44a7.31,7.31,0,0,0,4.23.61c24.27-5.68,48.56-11.27,72.81-17,21.12-5,42.28-9.8,63.38-14.86q46.29-11.08,92.68-21.75c3.61-.83,5-2.24,5-6.41Q419.69,207.37,419.82,60.35Zm-361-7.58,111-34.58c5.75-1.79,5.75-1.8,5.75,4.24,0,18.92,0,37.84,0,56.76,0,3.18.37,4.77-4.39,3.91-13.17-2.4-26.56-3.54-39.84-5.38-13.09-1.82-26.13-4-39.22-5.8-10.85-1.51-21.74-2.7-32.6-4.16-10.33-1.4-20.65-3-31-4.47-.08-.33-.17-.65-.25-1Q43.56,57.54,58.82,52.77ZM8.9,337.42c.17-43.5.1-87,.1-130.52,0-43.18.05-86.35-.09-129.53,0-4,1-5.13,4.92-4.6q29,4,58.1,7.65c19.54,2.49,39.09,4.87,58.63,7.32Q151,90.29,171.43,92.9c2.67.34,4.23,1.06,4.23,4.54q-.21,109.86,0,219.7c0,3.36-1.34,4.29-4.12,4.63-19.38,2.38-38.76,4.74-58.13,7.2-19.54,2.49-39.06,5.09-58.59,7.63-13.62,1.77-27.26,3.46-40.88,5.29C10.3,342.37,8.88,341.63,8.9,337.42ZM171,396.91c-27.16-8.6-54.4-17-81.6-25.47q-29.15-9.07-58.26-18.2c-.92-.28-1.82-.61-2.73-.92l.09-1c8.18-1.16,16.36-2.3,24.53-3.47,11.15-1.6,22.28-3.28,33.44-4.81,10.69-1.46,21.41-2.71,32.1-4.17s21.63-3.13,32.45-4.7q11.15-1.62,22.3-3.2c2.84-.4,2.22,1.72,2.23,3.23q0,18.16,0,36.35c0,7.63-.23,15.28.09,22.9C175.81,397.57,174.82,398.12,171,396.91ZM194.65,79.27c.29-19.59.22-39.19,0-58.79,0-3.76.95-4.34,4.45-3.56q89.6,19.75,179.22,39.31c2.91.64,5.81,1.3,10,2.26-10.4,1.93-19.52,3.66-28.65,5.3-17.5,3.13-35,6.17-52.52,9.31-15.71,2.83-31.4,5.79-47.12,8.62-13.79,2.49-27.58,5-41.42,7.26-6,1-11.83-1.62-17.78-1.66S194.58,84.18,194.65,79.27Zm.12,128.07c0-35.05.13-70.09-.13-105.13,0-5.21,1.31-6.69,6.23-5.56a61.58,61.58,0,0,0,8.37,1.06c1.64.14,2.39.89,2.37,2.51,0,1,0,2,0,3q0,104.13.07,208.26c0,3.73-.36,6-4.94,5.65a20.3,20.3,0,0,0-7.36.94c-4.68,1.4-4.66-1.22-4.65-4.6Q194.84,260.4,194.77,207.34Zm18,187.36c-5,1.1-10.07,2.09-15.07,3.31-2.24.56-3,0-3-2.3q.08-32.38,0-64.76c0-2,.48-2.83,2.74-3.08,6.15-.69,12.24-2.29,18.4-2.57,4.29-.2,8.67,1.09,13,1.87q24,4.33,48.08,8.76c17.47,3.2,34.92,6.47,52.39,9.63,15.57,2.82,31.16,5.49,46.72,8.34,3.67.68,7.49.74,11.21,2.58Zm194.12-47.59c-33.88-5.9-67.84-11.41-101.78-17-26.23-4.34-52.45-8.8-78.73-12.87-3.6-.55-3.76-2-3.74-4.77.07-10.46,0-20.92,0-31.39q0-88.67-.08-177.34c0-4,.63-5.9,5.3-6.6C249,94,269.94,90.22,291,86.74c23.15-3.83,46.32-7.59,69.48-11.42q24.24-4,48.46-8.13c2.06-.36,2.76.21,2.65,2.19-.06,1,0,2,0,3q0,67.74,0,135.5,0,67.5.06,135C411.6,346.49,411.45,347.9,406.88,347.11Z"/></g></g></svg>