<svg xmlns="http://www.w3.org/2000/svg" viewBox="0 0 370.05 381.11"><defs><style>.cls-1{fill:#9f6b7e;}</style></defs><g id="Layer_2" data-name="Layer 2"><g id="Layer_1-2" data-name="Layer 1"><path class="cls-1" d="M369.94,190.53q0-92.19.11-184.4c0-4.61-.82-6.43-5.87-6.09C352.46.82,340.72-.14,329,1c-13,1.21-26.12-.18-39.21,1C277.57,3.13,265.29,1.77,253,3c-12.66,1.23-25.45-.21-38.21,1s-25.45-.22-38.22,1c-12.33,1.19-24.77-.21-37.21,1-12.83,1.23-25.78-.19-38.71,1C88,8.15,75.2,7.46,62.46,7.8,43.75,8.3,25,9.25,6.31,9.14-.78,9.1.07,8.25.07,15.61q0,174.93,0,349.86a29.81,29.81,0,0,1,0,3C-.2,370.91.58,372,3.32,372c10.09-.07,20.16,0,30.25.83,11.69,1,23.45-.15,35.23.92,13.49,1.21,27.11-.23,40.7,1.06,12,1.13,24.11,0,36.22.89,15,1.07,30.12.08,45.18,1.18,10.06.74,20.13,0,30.26.82,13.66,1.14,27.45-.07,41.19,1.12,11.52,1,23.12-.15,34.73.89,13.32,1.2,26.78-.12,40.2,1.06,9.07.8,18.28-.14,27.4.28,4.64.21,5.36-1.45,5.35-5.62Q369.84,283,369.94,190.53ZM351.32,12.84l-9,21.7c-3.48,8.43-7,16.82-10.39,25.29-.92,2.31-2.13,3.22-4.72,3.17-24.56-.47-49.1.9-73.66,1.17-22.06.25-44.16-.07-66.18,1-18.44.9-36.86-.14-55.23.91-10.62.61-21.21.75-31.82.85a9.08,9.08,0,0,1-5.62-1.42Q63.87,44.27,32.88,23.19a2.78,2.78,0,0,1-1.46-2.53ZM330.06,190.56c0,37.37-.06,74.74.09,112.11,0,4.1-.62,5.69-5.32,5.61-53-.95-105.95-1.38-158.91-2.54-19.27-.43-38.53-.19-57.79-.79-1.66-.05-3.31-.19-5-.19-3.15,0-5.06-1.07-4.41-4.65a9.25,9.25,0,0,0,0-1.49q0-108.12-.13-216.23c0-5,1.62-6.25,6.08-6.26q24.41,0,48.83-.4c42.51-.65,85-1.2,127.52-2.17,14.61-.34,29.22-.46,43.83-.74,4.08-.08,5.29.93,5.27,5.14C330,115.49,330.06,153,330.06,190.56ZM12.49,351.78v-323L58.08,56.49C67.14,62,76.14,67.6,85.26,73a6.34,6.34,0,0,1,3.6,6.25q-.15,111.31-.07,222.64c0,2.16.06,3.94-2.35,5.4-24.13,14.54-48.16,29.26-72.23,43.92A10.43,10.43,0,0,1,12.49,351.78Zm334.94,16.33q-54.78-1.49-109.56-2.76c-24.74-.59-49.48-1-74.22-1.59q-63-1.47-126-3.05c-2.09,0-4.25.07-6.86-1.3,7.93-5.44,15.51-10.66,23.1-15.86C67.27,334.4,80.71,325.33,94,316.06a11.92,11.92,0,0,1,6.94-2c16.77-.61,33.47,1.34,50.24,1.11,28.05-.39,56.1.72,84.13,1.25,18.74.35,37.53-.31,56.22.86,12,.75,23.87.6,35.81.76,2.25,0,3.58.59,4.49,2.81q8.91,21.86,18.06,43.63C351.05,367.26,350.65,368.2,347.43,368.11Zm9.19-26.38-.74.3c-5.55-10.8-11.14-21.58-16.56-32.44-.61-1.22-.28-2.94-.28-4.43q0-114.6,0-229.21a15.37,15.37,0,0,1,1.8-7.54c5.15-9.72,10-19.56,15.81-29Z"/></g></g></svg>