<svg xmlns="http://www.w3.org/2000/svg" viewBox="0 0 418.06 412.77"><defs><style>.cls-1{fill:#ee9ec2;}</style></defs><g id="Layer_2" data-name="Layer 2"><g id="Layer_1-2" data-name="Layer 1"><path class="cls-1" d="M418,206.83q0-75.5.1-151c0-4.22-1.53-5.45-5.33-6.1C403,48.08,393.33,46,383.63,44.1q-26-5.12-52-10.22c-17.66-3.46-35.33-6.82-53-10.32-19.22-3.82-38.42-7.77-57.63-11.61q-24.31-4.84-48.64-9.6c-4-.79-7.91-1.9-11.93-2.29C154.72-.5,150,3,144.94,5,122.91,13.82,101,22.93,79,31.82c-24.85,10-49.7,20.07-74.66,29.82C.73,63.05.12,64.82.12,68.3Q.29,203.6,0,338.9c0,7.71,1.64,11.35,9.28,14.24,25.35,9.6,50.27,20.35,75.41,30.53q30.28,12.27,60.7,24.17c5.21,2,10.12,5.86,16.11,4.73q33.18-6.3,66.29-13c22.86-4.56,45.7-9.28,68.57-13.84,19.07-3.79,38.18-7.43,57.26-11.19,19.7-3.88,39.37-7.93,59.09-11.68,3.76-.71,5.36-1.85,5.35-6.08C417.9,306.83,418,256.83,418,206.83ZM150.63,16.17V79.44l-125-15.06-.41-.8Zm.11,380.34L25.34,349.14c0-.29.06-.57.1-.86,6.66-.8,13.32-1.57,20-2.41,9.89-1.24,19.77-2.57,29.66-3.78,9.26-1.12,18.55-2.08,27.81-3.2,10.06-1.22,20.11-2.55,30.17-3.8,5.35-.66,10.73-1.17,16.07-1.92,1.62-.23,1.6.65,1.6,1.61C150.75,355.14,150.74,375.5,150.74,396.51Zm.14-79.07c0,4.73-1.44,6.12-5.91,6.58-26.35,2.75-52.68,5.76-79,8.68-17.79,2-35.58,3.85-53.35,5.93-3.67.43-2.7-2-2.71-3.73-.06-12.12,0-24.25,0-36.37q0-46.09,0-92.19,0-63.53-.06-127.06c0-4,.09-5.6,5.25-4.94,22.34,2.87,44.78,5,67.18,7.45,19.42,2.15,38.82,4.48,58.24,6.71,3.28.38,7.66-.81,9.55,1.55,2.14,2.66.7,7,.7,10.63C150.77,172.93,150.7,245.18,150.88,317.44ZM173.46,16.08q41.07,7.67,82.17,15.23l121.2,22.44c2.25.42,4.49.88,7.44,1.47-25,5.2-49.19,10.27-73.4,15.26-21.67,4.46-43.32,9-65,13.16-8.76,1.69-17.36,5-26.48,4-9.91-1-19.77-2.52-29.66-3.67-5.85-.68-11.71-1.07-17.52-2.11-2.35-.42-2.52-1.35-2.52-3.18,0-19.92.1-39.84-.05-59.76C169.58,15.61,170.94,15.61,173.46,16.08Zm1.7,76.05c12.77,1.81,25.61,3.33,38.47,4.34,4.2.34,5,1.49,5,5.46q-.19,97.66-.09,195.34c0,5-.11,10,0,14.94.08,2.62-.5,3.59-3.47,3.88q-20.76,2-41.43,4.75c-4.27.58-4.07-1.46-4.07-4.39q.08-47.34,0-94.68,0-7.72,0-15.44c0-36.55.1-73.09-.12-109.63C169.52,91.86,170.87,91.52,175.16,92.13ZM340.22,365.74q-82.41,15.22-164.8,30.5c-4.41.83-6,.59-5.88-4.54.31-18.59.35-37.19,0-55.77-.09-4.33,1.9-5.5,5-5.86,15.6-1.83,31.21-3.66,46.86-5.05,8.9-.78,17.35,2.6,26,4.21,20.94,3.92,41.77,8.36,62.63,12.7,23.56,4.9,47.1,9.92,70.65,14.87a23.47,23.47,0,0,0,2.91.25l.06.58C369.12,360.33,354.67,363.07,340.22,365.74Zm69.6-173.82V349.75c-18.78-3.57-37.11-7.11-55.46-10.54Q305.17,330,256,320.92c-7.29-1.36-14.58-2.8-21.89-4.08-3.31-.58-4.69-1.86-4.67-5.68.19-39.69.12-79.38.12-119.07,0-30.23.1-60.46-.13-90.68,0-4,1.59-5,4.75-5.6q69.92-13,139.8-26.08c10.57-2,21.17-3.81,31.68-6.07,3.75-.8,4.28.22,4.27,3.7Q409.73,129.64,409.82,191.92Z"/></g></g></svg>