<svg xmlns="http://www.w3.org/2000/svg" viewBox="0 0 389.05 401.34"><defs><style>.cls-1{fill:#fceff6;}</style></defs><g id="Layer_2" data-name="Layer 2"><g id="Layer_1-2" data-name="Layer 1"><path class="cls-1" d="M388.93,201c0-54.49-.08-109,.12-163.46,0-5.28-1.91-6.66-6.56-6.25-5.11.46-10.18-.67-15.19-1.2-13.14-1.37-26.3-2.5-39.45-3.78C320,25.58,312.2,25,304.41,24.2c-13.3-1.43-26.62-2.62-39.94-3.82-8-.72-16-1.34-23.93-2.22-13-1.43-26-2.48-38.95-3.74-8-.78-16-1.28-24-2.07C165.32,11.11,153,9.53,140.7,8.49c-8.81-.75-17.64-1.43-26.42-2.27-13.48-1.28-27-2.5-40.43-4-4.64-.5-9.4-.28-14-1.61-2-.58-5-1.43-6.84.82Q45,11,37.23,20.75c-11,13.86-22,27.71-32.74,41.74C2.64,64.9,0,66.84,0,70.75Q.2,200.82.07,330.89a6.93,6.93,0,0,0,1.77,4.83c6.83,8.26,13.43,16.71,20.08,25.12,9.76,12.34,19.67,24.58,29.13,37.15,2.59,3.44,5.63,3.82,8.81,3,2.48-.66,4.85-.55,7.28-.8,7.8-.83,15.65-1.31,23.44-2.15q20-2.14,39.94-3.83c8-.67,16-1.36,23.93-2.2,13-1.37,26-2.57,39-3.77,8-.73,15.93-1.62,23.94-2.15,12.84-.85,25.63-2.57,38.44-3.81,8.14-.78,16.31-1.27,24.45-2.07,12.49-1.23,24.94-2.9,37.45-3.83,8.65-.63,17.29-1.53,25.92-2.32,13.31-1.21,26.59-2.87,39.95-3.67,4.19-.24,5.48-1.62,5.47-5.86Q388.81,282.76,388.93,201ZM12.89,64Q31.51,42.65,50.06,21.29c0-.06.28,0,.88.11,0,15.1,0,30.26.06,45.42,0,2.63-1.42,2.57-3.14,2.39a324.73,324.73,0,0,0-33.43-2C12.2,67.18,10.74,66.41,12.89,64ZM50.94,381.45,12.8,337.5c-2.4-2.77-.05-3.08,1.79-3.07a144.18,144.18,0,0,0,18.22-1c4.55-.55,9.18.35,13.76-.94,1.92-.55,4.52-1.11,4.46,2.94C50.81,350.34,50.94,365.24,50.94,381.45Zm-5.27-58.87c-10.45.21-20.89,1-31.31,1.89-4.06.33-5.24-.81-5.22-5.05.18-39.71.11-79.41.11-119.12,0-39.37.07-78.75-.11-118.12,0-4.26,1.16-5.36,5.23-5.05,11.42.86,22.86,1.44,34.3,2,1.69.08,2.45.53,2.29,2.28a29.82,29.82,0,0,0,0,3q0,116.39.12,232.75C51.07,321.61,49.94,322.49,45.67,322.58ZM70.56,15.17c28.94,2.63,57.9,5.1,86.85,7.65q42.43,3.72,84.86,7.52L328.1,38c7.75.68,15.49,1.33,23.24,2l.26.88c-37.1,13-74.13,26.2-111.37,38.77-5.23,1.77-11.66,1.32-17.25.31-6.88-1.24-13.77-.44-20.67-1.5-8.43-1.29-17.13-.7-25.69-1.27C158.75,76,140.9,74.49,123,73.26c-5.59-.39-11.21-.54-16.79-.83-12-.63-24-1.64-36.06-2.13-2.7-.11-3.28-.9-3.26-3.43q.17-24.17,0-48.34C66.9,15.67,67.64,14.91,70.56,15.17Zm1.55,65.14c22,1.48,44.05,2.58,66.07,3.89,26,1.54,52,3.17,78,4.73q6.72.41,13.44.5c3.52,0,5,1.15,4.91,5.18-.23,25.07-.12,50.14-.12,75.21,0,45.49-.06,91,.11,136.48,0,4.12-.84,5.77-5.19,6-20.05.9-40.09,2-60.13,3.18-20.21,1.14-40.41,2.38-60.61,3.58-12.75.76-25.51,1.42-38.25,2.36-3.23.24-3.41-1.16-3.39-3.68.09-12.12,0-24.24,0-36.36V200.66c0-38.52.08-77-.1-115.56C66.85,80.78,68,80,72.11,80.31Zm250.77,283.9q-54.83,4.86-109.65,9.67L107,383.22c-12.08,1.07-24.17,2-36.23,3.22-3.13.32-3.93-.48-3.9-3.61.16-15.95.13-31.9,0-47.84,0-2.71.61-3.55,3.51-3.7,17.45-.85,34.87-2.29,52.34-3.05,10.34-.45,20.69-1.33,31-2,16.43-1,32.86-2,49.27-3.13,7.51-.51,15.1-.33,22.62-1.64,13.24-2.31,24.89,3.89,36.81,8,29.69,10.22,59.25,20.8,88.86,31.24l.15.83C342,362.45,332.43,363.37,322.88,364.21Zm56.29-9c-14.9-4.71-29.49-9.3-44.07-13.93-28.22-9-56.41-18-84.68-26.85-4-1.24-5.26-2.95-5.25-7.19q.22-106.63,0-213.27c0-3.79,1.06-5.4,4.73-6.55Q312.36,67.77,374.7,47.82c1.38-.44,2.79-.76,4.47-1.21Z"/></g></g></svg>