<svg xmlns="http://www.w3.org/2000/svg" viewBox="0 0 372.21 380.65"><defs><style>.cls-1{fill:#f6bad4;}</style></defs><g id="Layer_2" data-name="Layer 2"><g id="Layer_1-2" data-name="Layer 1"><path class="cls-1" d="M372.08,14.28a26.92,26.92,0,0,1,0-3.48c.36-2.63-.69-3.31-3.31-3.35C356.54,7.24,344.3,7.7,332,6.7c-15.35-1.26-30.8.24-46.25-1-16.18-1.3-32.47.31-48.74-1-15.35-1.25-30.81.3-46.26-1-16-1.32-32.14.32-48.24-1C127,1.42,111.39,2.64,95.78,1.79,76.08.71,56.29,1.61,36.54.62,26.41.12,16.11,1.45,6.11.18.18-.58.21,1,.21,5.53Q.38,97.48.28,189.41q0,91.2,0,182.39c0,2.49-.79,5.41.24,7.38,1.7,3.3,4.62,0,7,0,16.25-.19,32.5.65,48.77-.69,15.35-1.27,30.8.28,46.25-1,16.18-1.31,32.47.31,48.74-1,15.35-1.26,30.81.31,46.26-1,15.67-1.3,31.46.32,47.24-1s31.8-.14,47.75-.89c20.36-1,40.82-.35,61.22-1.25a82.49,82.49,0,0,1,12.48.07c4.78.51,6-.95,6-5.83Q372,190.44,372.08,14.28Zm-28.46,5.07C322.24,35.13,302,50,281.83,65c-3,2.21-6.45,1.58-9.62,1.27-19.28-1.9-38.6-.17-57.88-1-27.45-1.14-54.93-.09-82.34-1.19-22.81-.91-45.59-.2-68.37-.78-5.48-.14-10.95-.71-16.42-.92a2.78,2.78,0,0,1-2.61-1.83L20.11,13ZM46.31,189.92c0-37.54.08-75.08-.11-112.63,0-4.29,1.2-5.05,5.25-5Q162.6,74,273.77,75.22c3.36,0,4.51.69,4.51,4.31q-.16,110.4,0,220.78c0,3.62-1.14,4.27-4.5,4.31q-111.18,1.31-222.33,2.92c-4.05.06-5.27-.68-5.25-5C46.39,265,46.31,227.47,46.31,189.92ZM13.56,346.41V33.58c5,7.82,8.92,15,13.81,21.48,8.12,10.77,10.26,22.47,10.16,35.87C37,162,37.25,233,37.33,304.1A14.64,14.64,0,0,1,35,312.37C28,323.3,21.17,334.29,13.56,346.41Zm6.67,20.42c2.34-4.69,4.28-8.69,6.31-12.63,5.77-11.17,11.63-22.29,17.33-33.49,1.06-2.08,2.08-3.11,4.72-3.3,23.45-1.68,47,.06,70.37-1.06,24.63-1.18,49.28.23,73.85-1,21-1.09,41.92-.48,62.88-.68,7-.06,13.91-1.26,20.91-1.15a9,9,0,0,1,5.54,1.66c20.09,14.84,40.19,29.64,61.51,45.35ZM359.71,352c-8-5.19-15.44-10-22.87-14.86-15.12-9.88-30.2-19.83-45.39-29.6-2.32-1.5-3.4-2.95-3.4-5.87q.15-111.83.08-223.64c0-1.78-.23-3.46,1.74-4.74,23.07-15,46.08-30,69.84-45.52Z"/></g></g></svg>