<svg xmlns="http://www.w3.org/2000/svg" viewBox="0 0 419.95 414.37"><defs><style>.cls-1{fill:#c3809c;}</style></defs><g id="Layer_2" data-name="Layer 2"><g id="Layer_1-2" data-name="Layer 1"><path class="cls-1" d="M420,65c0-3.16-1-4.39-4.09-5.38-23.08-7.33-46.08-15-69.11-22.47-25-8.18-50.1-16.28-75.1-24.56C259.21,8.5,246.48,5.27,234.44,0h-5c-.34.31-.64.8-1,.89C215,4,201.48,7,188.05,10.24c-26.85,6.47-53.64,13.16-80.5,19.6Q56.82,42,6,53.84c-4.56,1.07-6,3.1-6,8q.26,145.51.13,291c0,.83,0,1.66,0,2.49-.17,2.61.39,4,3.57,4.66,11.62,2.38,23.18,5.1,34.68,8,26.15,6.62,52.42,12.75,78.67,18.94,35.11,8.28,70.09,17.12,105.17,25.49,4.74,1.13,9.32,3,14.78,1.15,23.68-8.11,47.56-15.63,71.35-23.42C344.2,378.43,380,366.6,415.91,355c3.16-1,4-2.3,4-5.42Q419.84,207.3,420,65ZM65.69,51,215.55,17.4c6.07-1.36,6.07-1.37,6.07,4.83,0,19.91-.11,39.83.1,59.75.05,4.4-1.68,5.09-5.66,5.92-16.52,3.47-31.91-2.58-47.71-4.91-13.72-2-27.33-4.84-41-7.21C111.41,73,95.43,70.45,79.5,67.64,64.24,65,49,62.06,33.78,59.26c-.06-.33-.13-.65-.19-1C44.29,55.84,55,53.35,65.69,51ZM8.2,342q.12-67.24.06-134.5T8.27,73c0-5.83.18-5.86,5.82-4.94q45,7.39,90.11,14.69,38.4,6.3,76.79,12.67c4.72.78,9.44,1.71,14.2,2.17,2.5.24,3.07,1.33,3,3.47-.06,2.49,0,5,0,7.47q0,100.62.11,201.25c0,4.84-.74,7.19-6.2,8-21.25,3.08-42.41,6.73-63.61,10.16Q93.25,333.64,58,339.35c-15,2.45-30.06,4.84-45.05,7.5C8.41,347.65,8.2,345.52,8.2,342ZM217,397.67c-23.42-5.41-46.89-10.6-70.35-15.87Q91.43,369.38,36.2,356.92c-1-.21-2.55.37-2.49-1.72,31.36-5.45,62.74-10.82,94.09-16.36,25.07-4.44,50.05-9.38,75.18-13.4,5.38-.86,11.26,1.17,16.87,2.12,2.18.36,1.77,2.46,1.77,4.08,0,20.75-.1,41.5.09,62.25C221.75,397.84,220.81,398.55,217,397.67Zm4.57-296.28q.07,42.81,0,85.63v20.41c0,35-.06,70,.08,105.05,0,4.45-.54,5.58-5.69,5.12-6.24-.57-6.83-3-6.81-8.3.17-68.54.1-137.08.15-205.62,0-1.89-1-4.79,1-5.47A26.64,26.64,0,0,1,220.59,97C222.45,97.19,221.59,99.87,221.59,101.39Zm19.5-80.49c0-3.12.29-4.52,4.1-3.36,48.63,14.89,97.3,29.63,147.33,44.82-7.54,2-14.27,2.4-20.89,3.4q-16,2.43-32,4.65C329.06,71.9,318.5,73.27,308,74.77s-21.35,3.14-32,4.67c-10.21,1.46-20.42,2.85-30.63,4.29-3.19.45-4.26-.71-4.23-4C241.22,60.09,241.18,40.49,241.09,20.9Zm89,350.35c-28.07,8.53-56.15,17-84.19,25.65-3.6,1.11-4.93.94-4.88-3.39q.3-29.13,0-58.28c0-3.57,1-4.84,4.48-4.31,10.5,1.64,21,3.32,31.51,4.83,10.37,1.48,20.79,2.7,31.17,4.16,13.13,1.85,26.23,3.86,39.36,5.71,10.53,1.48,21.1,2.68,31.6,4.33,4.05.63,8.34.34,12.76,2.51Zm75.68-29.16c-22.27-3.32-44.63-6-67-8.89-19.21-2.46-38.44-4.82-57.65-7.29-12.48-1.6-24.93-3.35-37.41-4.91-1.89-.23-2.68-.88-2.62-2.72,0-1.16,0-2.33,0-3.49q0-107.39-.07-214.78c0-4.25.46-6.18,5.54-6.73,19.89-2.16,39.71-5,59.56-7.59q32.26-4.25,64.51-8.53C383.31,75.51,396,74,408.61,72.28c1.79-.24,2.47.16,2.43,1.91,0,1.33,0,2.66,0,4q0,64.78,0,129.57,0,64.55.06,129.08C411.13,340.78,411.28,342.91,405.79,342.09Z"/></g></g></svg>