<svg xmlns="http://www.w3.org/2000/svg" viewBox="0 0 364.04 390.89"><defs><style>.cls-1{fill:#f9e2ee;}</style></defs><g id="Layer_2" data-name="Layer 2"><g id="Layer_1-2" data-name="Layer 1"><path class="cls-1" d="M364,195.69V25.76c0-1.17-.08-2.34,0-3.49.14-1.74-.71-2-2.28-2.32-8.58-1.92-17.34-.88-26-1.65-11.25-1-22.6-1.56-33.91-2.11-18.23-.88-36.43-2-54.64-3-11.32-.65-22.63-1.4-33.94-2-12.48-.63-24.95-1.38-37.42-2-11.16-.57-22.29-1.43-33.44-2-12.31-.61-24.62-1.48-36.93-1.95-9.55-.36-19.1-1.15-28.66-1.45C70.39,3.61,63.93,3.63,57.56,3,41.7,1.43,25.77,1.19,9.89,0,6.29-.24,6,1.32,6,4.28,6.07,13.13,4.6,21.91,3.83,30.7,2.54,45.34.17,59.93.14,74.64,0,154.88.13,235.11,0,315.35c0,10.72,1.42,21.3,2.28,31.91C3.36,360.75,5.2,374.19,6,387.71c.16,2.8,1.11,3.19,3.49,3.18,4.78,0,9.51-.75,14.23-.9,11.51-.38,23-1.41,34.44-2,12.31-.62,24.61-1.35,36.92-2,11.32-.6,22.62-1.4,33.94-2,12.31-.62,24.61-1.35,36.92-2,11.32-.6,22.62-1.43,33.94-2,12.31-.6,24.61-1.34,36.92-2,11.32-.61,22.62-1.44,33.93-2,17.9-.84,35.77-2,53.65-3,11.64-.67,23.28-1.24,34.93-1.93,4.56-.26,4.79-1.82,4.78-5.48Q363.89,280.67,364,195.69ZM19.81,17.29c0-3.37,1.18-3.67,4.06-3.51,36.16,2,72.33,3.78,108.49,5.67Q194.82,22.71,257.27,26l72.44,3.83.21.91q-12,5.77-24,11.56c-20.6,9.9-41.25,19.7-61.77,29.77a15.69,15.69,0,0,1-10.47,1.56,50.44,50.44,0,0,0-11.86-.77c-13.26.24-26.48-.9-39.72-1.25-17.52-.46-35-1.29-52.57-1.93q-26.78-1-53.55-2c-17.36-.64-34.69-2-52.07-1.79-2.86,0-4.15-.54-4.12-3.79Q20,39.71,19.81,17.29Zm4.53,58.37q71.19,2.72,142.39,5,33.86,1.16,67.71,2.07c2.81.07,4,.37,4,3.69q-.17,109.12,0,218.26c0,3-1.06,3.37-3.69,3.46-45.31,1.51-90.61,3.18-135.92,4.72-25.06.86-50.13,1.44-75.18,2.42-3.93.15-3.78-1.62-3.77-4.34q.06-57.8,0-115.6c0-38.37.05-76.74-.07-115.11C19.81,76.73,20.34,75.5,24.34,75.66ZM329.76,361.08l-71.59,3.81q-72.36,3.81-144.72,7.62c-30,1.57-60,3-90,4.7-3,.16-3.62-.73-3.59-3.49q.16-22.41,0-44.82c0-3.11,1-3.88,4-3.92,15.06-.17,30.14-.24,45.19-1,18-.93,36-1.4,54-2.06,17.17-.63,34.35-1.37,51.53-2,18.17-.65,36.39-.93,54.48-2.26,8.68-.63,15.65,1.27,23,4.83,25.05,12.21,50.17,24.25,75.26,36.37.85.41,1.69.86,2.54,1.29Zm24.07-228.14V348.17c0,6.51,0,6.51-6.17,3.82q-47.85-20.88-95.73-41.68c-2.61-1.12-3.69-2.21-3.69-5.23q.15-109.6,0-219.21c0-2.28.16-3.86,2.69-5q50-21.56,99.87-43.3c.72-.32,1.5-.5,3-1C353.83,69.18,353.84,101.06,353.83,132.94Z"/></g></g></svg>