<svg xmlns="http://www.w3.org/2000/svg" viewBox="0 0 408.88 407.99"><defs><style>.cls-1{fill:#9f697e;}</style></defs><g id="Layer_2" data-name="Layer 2"><g id="Layer_1-2" data-name="Layer 1"><path class="cls-1" d="M408.83,204q0-67.28,0-134.54c0-2,.73-4-1.92-5.52C392.48,55.74,378.23,47.32,363.92,39c-19-11-38.18-21.74-56.95-33.12-7.86-4.77-15.44-7.13-24.75-5.28-14.26,2.85-28.7,4.83-43.1,7-14.57,2.17-29.2,4-43.78,6.17s-29.08,4.56-43.62,6.83q-18.91,3-37.83,5.85-17.23,2.61-34.49,5.1C67.09,33.34,54.75,35,42.45,36.84c-12,1.81-23.88,3.94-35.86,5.63C.1,43.39.06,43.11.06,49.88V358.31a24.83,24.83,0,0,1,0,3c-.34,2.83,1.33,3.83,3.71,4.17,9.56,1.36,19.12,2.67,28.68,4,11.84,1.68,23.68,3.31,35.49,5.12,12.13,1.85,24.21,3.93,36.33,5.82q18.91,2.94,37.85,5.71c12.15,1.8,24.31,3.49,36.45,5.29,10,1.48,20.06,3.05,30.09,4.57l35.93,5.38L281.45,407c7.33,1.11,14.15,2.37,21.39-2.42,13-8.57,26.8-15.83,40.27-23.64,20.69-12,41.31-24.12,62.14-35.89,3-1.71,3.63-3.48,3.63-6.52Q408.76,271.22,408.83,204ZM12.75,351.18c-4.68,1.1-4.77-.9-4.77-4.43q.11-71.49,0-143,0-71,0-142c0-5.81,0-5.8,5.66-4.5Q90.52,74.94,167.36,92.53c3.74.85,5.32,2,5.3,6.38q-.27,105.1,0,210.23c0,3.86-1,5.42-4.8,6.29Q90.26,333.13,12.75,351.18ZM278.09,393c-37.09-5.33-74.22-10.41-111.33-15.62q-48.25-6.77-96.49-13.66C59,362.17,47.75,360.7,35.12,359c16.33-4.07,31.4-7.78,46.46-11.57,31.79-8,63.58-16,95.32-24.15,5.57-1.44,10.78.55,16.17.68,9.5.24,19,1.71,28.46,2.69,12.26,1.26,24.52,2.69,36.8,3.78,6.89.61,13.78,1.06,20.64,1.91,2.93.36,3.32,1.71,3.31,4.21q-.13,26.4,0,52.81C282.3,392.57,281.67,393.54,278.09,393Zm-.89-71c-16.95-1.84-34-2.89-51-4.36-13-1.12-26-2.5-39.06-3.57-3.11-.25-3.7-1.59-3.7-4.41q.11-105.6,0-211.19c0-3.25,1.11-4.27,4.15-4.51,9.4-.74,18.79-1.72,28.19-2.56,13.69-1.22,27.38-2.39,41.07-3.6,7.58-.66,15.18-1.26,22.76-2.06,2.13-.22,2.66.64,2.62,2.46,0,1.16,0,2.32,0,3.48V204.24c0,37.69,0,75.38.08,113.06C282.32,321.27,281.87,322.5,277.2,322Zm-.41-245.63c-12.31,1-24.64,1.93-36.94,3.09s-24.92,2.21-37.28,4c-16.57,2.45-32.43.14-48.49-4.15-37.53-10-75.28-19.26-112.94-28.82C39.57,50.12,38,49.61,36,49l70.94-10q44.33-6.21,88.65-12.42c27.28-3.8,54.57-7.42,81.8-11.48,4.43-.66,4.93.58,4.9,4.35-.15,16.78-.28,33.56.07,50.33C282.47,74.4,280.74,76,276.79,76.36Zm23.37-60.63,91.73,49.51c-16.75,1.48-32.27,2.76-47.77,4.25-11.93,1.16-23.84,2.61-35.76,3.86-1.81.19-3.65,0-5.47.11-2.3.15-2.76-1.06-2.75-3C300.18,52.52,300.16,34.61,300.16,15.73Zm0,376.59c0-18.82,0-36.73-.05-54.63,0-2.94,1.46-3.26,3.71-3.08,8.53.69,17.08,1.27,25.6,2.1,8.32.82,16.61,2,24.94,2.84,12.08,1.16,24.18,2.1,37.58,3.25ZM394,332.37c-13.67-1.56-27.4-2.53-41.1-3.75s-27.41-2.43-41.11-3.66c-.66-.06-1.31-.21-2-.27-9.7-.82-9.7-.82-9.7-10.67q0-111.87,0-223.75c0-6.61.09-6.4,6.47-6.91,17.84-1.42,35.65-3.1,53.48-4.67,12.05-1.06,24.12-2,36.15-3.23,4.15-.42,3.61,2.11,3.61,4.61q0,62,0,124.08c0,41-.08,82.06.12,123.09C400,332.15,398.63,332.89,394,332.37Z"/></g></g></svg>